<svg fill="none" height="36" viewBox="0 0 186 36" width="186" xmlns="http://www.w3.org/2000/svg"><path clip-rule="evenodd" d="m64.9805 1.0631 1.1029-.308874c.3145-.119719.6652-.232253 1.0522-.337606.387-.105352.8224-.244226 1.3061-.41662v26.5344l-1.7487.5243c-.6144.182-1.253.3879-1.9157.6178l-2.2422.7183-.7256.2227v-2.9954c-.7825.9249-1.7324 1.6971-2.801 2.2771-.9208.4745-1.9442.721-2.9823.7183-.9484.0068-1.8836-.2203-2.7211-.6609-.8462-.4419-1.5882-1.0564-2.1769-1.8029-.6527-.8196-1.1449-1.7526-1.4513-2.7512-.3532-1.1154-.527-2.2789-.5152-3.4478-.011-1.475.2649-2.9382.8127-4.3099.4991-1.2902 1.2374-2.4766 2.1769-3.4982.9152-.9822 2.0175-1.7756 3.2436-2.33449 1.272-.57721 2.6571-.86909 4.0563-.85478.377-.00471.7537.02656 1.1247.09338.4279.08455.8478.20469 1.2553.35915v-7.49197l.3701-.0862c.4015-.09577.8683-.21789 1.4005-.36634zm-4.3175 24.9397c.4355-.2816.8267-.6253 1.161-1.02l.0217-13.5401c.0159-.5392-.1731-1.0646-.5297-1.47256-.1792-.18767-.3969-.33536-.6384-.43321s-.5013-.14362-.762-.13425c-1.2046 0-2.1213.80212-2.7502 2.40632-.7064 2.2904-1.0156 4.6827-.9143 7.0754 0 2.6146.2419 4.499.7257 5.6531.1835.5165.5288.9616.9856 1.2704.4568.3087 1.0012.4651 1.5541.4463.3975.0142.7922-.0723 1.1465-.2514zm-46.6293-7.0682-6.2259-15.71658h-7.8078v24.90378h.49343v-23.28759l9.96297 24.52309 9.9484-25.09055v23.85505h7.4232v-24.90378h-7.4958zm34.0611-5.2148c-.0031-.7291-.1081-1.4543-.312-2.1549-.2329-.6244-.6345-1.1736-1.161-1.5875-.9889-.71842-2.2006-1.07165-3.425-.99846-.5916.00259-1.1826.03616-1.7705.10057-.9622.10483-1.917.26795-2.859.48845-1.6662.38875-3.2879.94474-4.84 1.65934-2.9025 1.3264-4.3538 2.8947-4.3538 4.7049-.0174.348.0386.6957.1645 1.0211.1259.3253.3189.6211.5668.8685.2478.2473.545.4409.8727.5682.3276.1273.6784.1856 1.03.1712.4909.0133.9794-.0721 1.4359-.2511.4565-.1791.8715-.448 1.22-.7905.7581-.7532 1.221-1.7486 1.3061-2.8085l.1451-1.135c.069-.6426.2077-1.2759.4136-1.8891.1382-.422.3889-.7992.7257-1.0919.266-.2061.5653-.3664.8852-.474.327-.13286.677-.20118 1.0304-.20117.4435-.01181.8784.12307 1.2358.38317.3575.2602.6171.6309.738 1.0535.18.8986.2651 1.8134.2539 2.7295v2.9164c-3.2966.8743-6.4885 2.0977-9.5203 3.649-1.7366 1.0152-2.605 2.3129-2.605 3.8932-.0133.5768.1183 1.1479.383 1.662.2647.514.6542.9549 1.1336 1.2831 1.1332.7953 2.5016 1.1946 3.8894 1.1349 1.606.0434 3.1867-.403 4.5279-1.2786.4097-.2511.7873-.5502 1.1247-.8907.4238-.4242.8075-.8859 1.1465-1.3791.4838 2.3943 1.7367 3.5915 3.7588 3.5915 1.0109-.0123 2.0048-.2583 2.9025-.7183l.6168-.3304s-.6168-.7183-.6168-2.6506zm-6.6685 9.6684c.0249.6973-.1872 1.3828-.6023 1.9467-.2.2392-.4538.4287-.7411.5535-.2873.1247-.6001.1811-.9134.1648-.3268.0103-.6505-.067-.9366-.2238s-.5241-.3872-.6888-.6669c-.4238-.7894-.6197-1.6792-.566-2.5716-.0272-.8035.1162-1.6037.4209-2.3489.2769-.6338.7298-1.1768 1.3061-1.5659.3231-.2603.6855-.4688 1.074-.6177.3531-.1341.8925-.328 1.6181-.5818zm47.7758-23.3882c-.4838.172394-.9192.311268-1.3062.41662s-.7425.215493-1.0667.330423l-1.1029.308877-1.3787.40225c-.5321.14845-.999.27056-1.4005.36634l-.3701.08619v7.49916c-.4075-.15446-.8274-.2746-1.2553-.35916-.3711-.06642-.7477-.09769-1.1247-.09338-1.3924-.00888-2.7698.28539-4.0345.86197-1.2261.55891-2.3285 1.35231-3.2436 2.33451-.9398 1.0214-1.6782 2.2079-2.1769 3.4982-.5478 1.3717-.8237 2.8349-.8127 4.3098-.0119 1.1689.162 2.3324.5152 3.4479.306.9987.7983 1.9318 1.4512 2.7511.5888.7465 1.3308 1.361 2.1769 1.803.8376.4405 1.7728.6677 2.7212.6608 1.0382.0033 2.0617-.2432 2.9823-.7183 1.069-.5793 2.019-1.3517 2.8009-2.277v2.9953l.7257-.2226c.8224-.2538 1.5698-.4933 2.2422-.7183.6724-.2251 1.311-.431 1.9156-.6178l1.7488-.5244zm-6.6251 24.9828c-.3345.3944-.7257.738-1.161 1.02-.3544.1788-.7489.2653-1.1465.2514-.5528.0188-1.0972-.1376-1.554-.4464-.4568-.3087-.8021-.7538-.9857-1.2703-.4837-1.1541-.7256-3.0385-.7256-5.6531-.11-2.3887.1893-4.7785.8853-7.0682.6288-1.6042 1.5456-2.40634 2.7501-2.40634.2608-.00937.5206.0364.762.13425.2415.09785.4592.24554.6385.43321.3565.40788.5455.93338.5297 1.47258zm21.203-3.8142c.464-.9051.859-1.7024 1.183-2.392l4.673-9.32362h.566l-10.5435 20.91002c-.712 1.614-1.7576 3.0626-3.0694 4.2524-1.0055.8682-2.2939 1.3477-3.6282 1.3504-1.1545.0483-2.2872-.322-3.1855-1.0415-.3966-.3373-.7119-.7582-.9228-1.2317s-.3122-.9878-.2963-1.5051c-.0123-.4269.0653-.8517.2277-1.2474.1623-.3957.4061-.7537.7156-1.0512.31-.2984.6769-.5327 1.0793-.6894.4024-.1566.8322-.2324 1.2645-.2229.5781-.0167 1.15.1224 1.6545.4023.5727.3581 1.0664.8272 1.4512 1.3792.1059.1165.2053.2388.2975.3663.0737.0961.1537.1873.2395.273.1556.1991.3529.3625.5784.4791.2255.1165.4737.1834.7277.1961.552-.0195 1.0738-.2545 1.4513-.6537.5947-.6387 1.0844-1.3658 1.4513-2.1549l.4212-.8189-9.4336-18.9993h7.2563l2.0536 4.1159c.0727.1796.1667.3664.2687.5531zm23.989-10.6812c-.402-.51529-.943-.90848-1.56-1.13496-.728-.27956-1.504-.41618-2.286-.40225-.595-.00358-1.188.05663-1.77.17957l-.203.05028c-.504.13019-.991.31822-1.452.56029-.591.30387-1.152.66227-1.676 1.07027-.644.5241-1.253 1.0904-1.821 1.6952v-3.54843l-1.509.51-1.183.3807c-.222.07949-.463.15593-.693.22933-.124.0394-.245.0779-.359.1155l-1.176.3304-1.233.3879-.53.1365v17.0742h6.683v-14.9983c.741-.7787 1.746-1.2596 2.823-1.3505.361.0019.716.0959 1.03.273.296.1456.535.3827.682.6752.098.167.173.3456.225.5316.056.236.093.4763.109.7183.024.3017.041.6967.051 1.1852v.4453 12.5202h6.69v-14.28c-.01-.6219-.073-1.2419-.189-1.8533-.098-.5434-.321-1.0571-.653-1.5012zm19.23 12.3475c.379-.2368.721-.5272 1.015-.8619.338-.4126.643-.8496.915-1.3074l.334.1437c-.223.5986-.426 1.1038-.61 1.5156-.151.373-.323.7375-.515 1.0919-.184.3304-.38.6465-.588.9481l-.726.9698c-.85 1.0387-1.926 1.8737-3.149 2.4422-1.278.5712-2.668.8581-4.071.8404-1.348.0164-2.686-.2276-3.94-.7183-1.183-.4547-2.262-1.1412-3.171-2.0184-.903-.8617-1.617-1.8985-2.097-3.0457-.502-1.2064-.749-2.5022-.725-3.807-.01-1.3471.259-2.6818.79-3.922.51-1.1951 1.249-2.2807 2.177-3.1964.938-.9169 2.044-1.6483 3.258-2.15498 2.39-.96729 5.052-1.04638 7.496-.22267 1.018.35683 1.958.90025 2.772 1.60185.826.7087 1.503 1.57 1.996 2.5356.524 1.0455.86 2.1733.994 3.333h-12.488c.024 4.6546 2.123 6.9819 6.298 6.9819 1.433.0434 2.844-.3585 4.035-1.1493zm-7.119-13.35334c-1.059 0-1.857.60334-2.394 1.81014-.635 1.6743-.926 3.4568-.857 5.2437h5.805v-1.0775-.8045c-.009-.2299-.021-.4478-.036-.6537-.014-.2059-.034-.431-.058-.6752-.001-1.0204-.25-2.0256-.726-2.9307-.179-.2923-.435-.53127-.74-.6918-.305-.16054-.649-.23668-.994-.22044zm21.783 6.65874-2.561-.8188c-2.38-.7662-3.57-1.8964-3.57-3.3905-.013-.3318.046-.6624.171-.9706.125-.3081.314-.5868.554-.818.247-.23492.538-.41933.857-.5426s.659-.18297 1.001-.17567c.667.0122 1.32.18741 1.901.51.704.36607 1.35.83317 1.916 1.38637.663.6562 1.257 1.3783 1.77 2.1549.581.8435 1.067 1.7466 1.452 2.6937h.392l-.392-6.12c-1.189-.35648-2.401-.6301-3.628-.81891-1.022-.17081-2.056-.26207-3.092-.27296-1.087-.01005-2.17.14994-3.207.47409-.923.27486-1.79.70758-2.561 1.27858-.692.5298-1.27 1.1917-1.698 1.9466-.416.7506-.63 1.5937-.624 2.4495-.006.6644.131 1.3225.4 1.9314.268.6089.664 1.155 1.16 1.6027 1.03.9864 2.755 1.8867 5.173 2.7008l1.844.6321c1.02.274 1.968.7642 2.779 1.4366.26.269.462.5869.595.9349.134.3479.195.7189.181 1.0908.019.3562-.035.7126-.16 1.0474-.125.3347-.317.6407-.565.8992-.265.2468-.578.4378-.92.5613-.342.1234-.705.1769-1.069.157-.855-.0104-1.696-.2221-2.452-.6178-.887-.4678-1.699-1.0633-2.409-1.767-.853-.8437-1.614-1.7729-2.272-2.7727-.755-1.1799-1.415-2.4168-1.973-3.6993h-.385l.385 7.4202.776.2945c.21.0862.435.1652.668.237.232.0719.464.1437.725.2155l1.031.2945c.653.2059 1.219.364 1.698.4741s.921.194 1.328.2514c.364.0685.732.1165 1.102.1437.344.0239.695.0359 1.053.0359 1.138.0116 2.27-.1607 3.352-.51.971-.3047 1.873-.7925 2.656-1.4366.729-.5849 1.321-1.3203 1.734-2.155.421-.8439.635-1.7741.624-2.7152.016-.6228-.096-1.2423-.331-1.8204s-.586-1.1026-1.033-1.5413c-1.264-1.0831-2.76-1.8668-4.376-2.2914zm17.866 0c1.611.4403 3.1 1.2387 4.353 2.3345.454.4244.816.9354 1.064 1.5021s.377 1.1773.38 1.795c.011.941-.202 1.8714-.624 2.7152-.412.8346-1.004 1.5701-1.734 2.1549-.783.6441-1.685 1.1319-2.656 1.4366-1.082.3494-2.214.5216-3.352.51-.358 0-.709-.012-1.052-.0359-.37-.0272-.739-.0752-1.103-.1437-.407-.0574-.849-.1412-1.328-.2514-.479-.1101-1.045-.2681-1.698-.4741l-1.03-.2945c-.262-.0718-.494-.1436-.726-.2155-.232-.0718-.457-.1508-.668-.237l-.776-.2945-.385-7.4201h.385c.559 1.2824 1.219 2.5193 1.974 3.6993.652 1.0194 1.411 1.968 2.264 2.8301.71.7037 1.522 1.2992 2.409 1.767.756.3957 1.597.6074 2.452.6178.364.0199.727-.0336 1.069-.1571.342-.1234.655-.3144.92-.5612.248-.2586.44-.5645.565-.8993.125-.3347.179-.6911.16-1.0474.014-.3718-.047-.7428-.18-1.0907-.134-.348-.336-.6659-.596-.9349-.811-.6725-1.759-1.1626-2.779-1.4366l-1.844-.6321c-2.418-.8141-4.143-1.7144-5.173-2.7009-.494-.4489-.886-.9956-1.153-1.6044-.266-.6088-.4-1.2662-.393-1.9296-.006-.8558.209-1.6989.624-2.4495.429-.7549 1.006-1.4169 1.698-1.9466.772-.571 1.639-1.00374 2.562-1.27859 1.037-.32415 2.119-.48415 3.207-.47409 1.023.00087 2.044.08013 3.055.23704 1.227.18881 2.439.46244 3.628.81884l.392 6.12h-.392c-.384-.947-.871-1.8502-1.451-2.6936-.514-.7766-1.107-1.4987-1.771-2.155-.566-.5531-1.211-1.0203-1.915-1.38629-.582-.3226-1.235-.4978-1.902-.51-.342-.00731-.682.05239-1.001.17566s-.61.30769-.856.54263c-.25.2268-.449.5034-.582.8118-.134.3083-.201.6413-.195.9768 0 1.4941 1.198 2.6242 3.592 3.3904z" fill="#000" fill-rule="evenodd"/></svg>