<svg width="28" height="30" viewBox="0 0 28 30" fill="none" xmlns="http://www.w3.org/2000/svg">
<path d="M25.6796 8.55603C26.0039 8.55603 26.3149 8.69405 26.5442 8.93973C26.7735 9.18541 26.9023 9.51862 26.9023 9.86606L26.9023 24.176C26.9013 24.5497 26.7622 24.9078 26.5156 25.172C26.2689 25.4363 25.9347 25.5853 25.5859 25.5864L9.87184 25.5864C9.52476 25.5853 9.1922 25.437 8.94677 25.1741C8.70135 24.9111 8.563 24.5548 8.56192 24.1829L8.56192 9.9665C8.56299 9.59277 8.70204 9.23469 8.94868 8.97042C9.19533 8.70616 9.52955 8.55719 9.87836 8.55603L25.6796 8.55603Z" fill="url(#paint0_linear_871_177176)"/>
<path d="M2.44926 22.0929C2.12498 22.0929 1.81398 21.9549 1.58468 21.7092C1.35538 21.4635 1.22656 21.1303 1.22656 20.7829V6.47297C1.22764 6.09924 1.36668 5.74115 1.61332 5.47689C1.85997 5.21262 2.19419 5.06365 2.543 5.0625H18.2571C18.6042 5.06365 18.9367 5.21189 19.1821 5.47484C19.4276 5.7378 19.5659 6.09411 19.567 6.46598V20.6824C19.5659 21.0562 19.4269 21.4142 19.1802 21.6785C18.9336 21.9428 18.5994 22.0917 18.2505 22.0929H2.44926Z" fill="#6A86F2"/>
<path d="M1.22656 6.47297V8.55591L19.567 8.45548V6.46598C19.5659 6.09411 19.4276 5.7378 19.1821 5.47484C18.9367 5.21189 18.6042 5.06365 18.2571 5.0625H2.543C2.19419 5.06365 1.85997 5.21262 1.61332 5.47689C1.36668 5.74115 1.22764 6.09924 1.22656 6.47297Z" fill="#2D4AB8"/>
<path d="M14.2001 11.5H6.80001C6.28914 11.5 5.875 11.9141 5.875 12.425V17.9751C5.875 18.486 6.28914 18.9001 6.80001 18.9001H14.2001C14.711 18.9001 15.1251 18.486 15.1251 17.9751V12.425C15.1251 11.9141 14.711 11.5 14.2001 11.5Z" stroke="white" stroke-width="1.38752" stroke-linecap="round" stroke-linejoin="round"/>
<defs>
<linearGradient id="paint0_linear_871_177176" x1="15.083" y1="8.11936" x2="15.083" y2="24.7131" gradientUnits="userSpaceOnUse">
<stop stop-color="#FCBA01"/>
<stop offset="1" stop-color="#FCBA01" stop-opacity="0"/>
</linearGradient>
</defs>
</svg>
