<svg width="30" height="30" viewBox="0 0 30 30" fill="none" xmlns="http://www.w3.org/2000/svg">
<path d="M27.4285 8.27223C27.7806 8.27223 28.1182 8.41208 28.3671 8.661C28.616 8.90992 28.7559 9.24752 28.7559 9.59955L28.7559 24.0983C28.7547 24.4769 28.6038 24.8397 28.336 25.1075C28.0683 25.3752 27.7054 25.5262 27.3268 25.5273L10.2681 25.5273C9.89134 25.5262 9.53032 25.376 9.2639 25.1096C8.99748 24.8431 8.84729 24.4821 8.84612 24.1053L8.84612 9.70131C8.84728 9.32265 8.99822 8.95984 9.26597 8.69209C9.53373 8.42434 9.89654 8.2734 10.2752 8.27223L27.4285 8.27223Z" fill="url(#paint0_linear_1372_175555)"/>
<rect x="1.24609" y="4.47266" width="19.9098" height="17.2551" rx="1.5" fill="#6A86F2"/>
<path d="M11.25 11.8125V11.0625" stroke="white" stroke-width="1.5" stroke-linecap="round" stroke-linejoin="round"/>
<path d="M17.25 15.2522C17.058 14.4838 16.6145 13.8016 15.9902 13.3142C15.3658 12.8268 14.5964 12.5622 13.8044 12.5624L8.50819 12.5624C7.71612 12.5622 6.94673 12.8268 6.32238 13.3142C5.69803 13.8016 5.25458 14.4838 5.06257 15.2522L17.25 15.2522Z" stroke="white" stroke-width="1.5" stroke-linecap="round" stroke-linejoin="round"/>
<defs>
<linearGradient id="paint0_linear_1372_175555" x1="15.9251" y1="7.82979" x2="15.9251" y2="24.6425" gradientUnits="userSpaceOnUse">
<stop stop-color="#FCBA01"/>
<stop offset="1" stop-color="#FCBA01" stop-opacity="0"/>
</linearGradient>
</defs>
</svg>
