<svg width="30" height="30" viewBox="0 0 30 30" fill="none" xmlns="http://www.w3.org/2000/svg">
<path d="M27.2642 8.74964C27.6116 8.74964 27.9448 8.88766 28.1905 9.13334C28.4362 9.37901 28.5742 9.71223 28.5742 10.0597L28.5742 24.3696C28.5731 24.7433 28.4241 25.1014 28.1598 25.3656C27.8956 25.6299 27.5375 25.7789 27.1638 25.78L10.3272 25.78C9.95538 25.7789 9.59906 25.6306 9.33611 25.3677C9.07316 25.1047 8.92492 24.7484 8.92377 24.3766L8.92377 10.1601C8.92492 9.78638 9.07389 9.42829 9.33816 9.16403C9.60242 8.89976 9.96051 8.75079 10.3342 8.74964L27.2642 8.74964Z" fill="url(#paint0_linear_1372_175534)" fill-opacity="0.8"/>
<rect x="1.42383" y="4.99976" width="19.6505" height="17.0304" rx="1.5" fill="#6A86F2"/>
<path d="M1.42383 7.39976C1.42383 6.55968 1.42383 6.13964 1.58732 5.81877C1.73113 5.53653 1.9606 5.30706 2.24284 5.16325C2.56371 4.99976 2.98375 4.99976 3.82383 4.99976H18.6743C19.5144 4.99976 19.9345 4.99976 20.2553 5.16325C20.5376 5.30706 20.767 5.53653 20.9108 5.81877C21.0743 6.13964 21.0743 6.55968 21.0743 7.39976V7.99976H1.42383V7.39976Z" fill="#2D4AB8"/>
<path d="M8.07873 12.3292L9.37988 16.6653C9.39987 16.7321 9.43686 16.7926 9.48724 16.8408C9.53761 16.889 9.59964 16.9234 9.66726 16.9404C9.73488 16.9575 9.80578 16.9567 9.87301 16.9382C9.94025 16.9197 10.0015 16.884 10.0508 16.8347L10.7136 16.172L12.4235 17.8819C12.4609 17.9194 12.5053 17.9491 12.5542 17.9693C12.6031 17.9896 12.6555 18 12.7085 18C12.7614 18 12.8138 17.9896 12.8627 17.9693C12.9116 17.9491 12.956 17.9194 12.9935 17.8819L14.1334 16.742C14.1709 16.7045 14.2006 16.6601 14.2208 16.6112C14.2411 16.5623 14.2515 16.5099 14.2515 16.457C14.2515 16.404 14.2411 16.3516 14.2208 16.3027C14.2006 16.2538 14.1709 16.2094 14.1334 16.172L12.4235 14.4621L13.0862 13.8013C13.1355 13.752 13.1712 13.6908 13.1898 13.6235C13.2083 13.5563 13.2091 13.4855 13.1921 13.4179C13.1751 13.3502 13.1408 13.2882 13.0926 13.2378C13.0444 13.1874 12.984 13.1504 12.9172 13.1303L8.58074 11.8292C8.51122 11.8085 8.43743 11.807 8.36712 11.8248C8.29682 11.8426 8.2326 11.8789 8.18122 11.9301C8.12985 11.9813 8.09321 12.0454 8.07518 12.1156C8.05714 12.1858 8.05837 12.2596 8.07873 12.3292V12.3292Z" stroke="white" stroke-width="1.5" stroke-linecap="round" stroke-linejoin="round"/>
<defs>
<linearGradient id="paint0_linear_1372_175534" x1="15.9106" y1="8.31296" x2="15.9106" y2="24.9067" gradientUnits="userSpaceOnUse">
<stop stop-color="#FCBA01"/>
<stop offset="1" stop-color="white"/>
</linearGradient>
</defs>
</svg>
