<svg width="30" height="30" viewBox="0 0 30 30" fill="none" xmlns="http://www.w3.org/2000/svg">
<path d="M26.7817 16.5103C26.7819 18.1769 26.2878 19.8061 25.3621 21.1919C24.4363 22.5777 23.1203 23.6578 21.5806 24.2956C20.0409 24.9335 18.3467 25.1004 16.7121 24.7754C15.0775 24.4503 13.5761 23.6478 12.3976 22.4693C11.2192 21.2908 10.4166 19.7894 10.0915 18.1548C9.76646 16.5202 9.9334 14.826 10.5713 13.2863C11.2091 11.7466 12.2892 10.4306 13.675 9.50486C15.0608 8.57907 16.69 8.08502 18.3566 8.08521C20.591 8.08545 22.7338 8.97317 24.3138 10.5531C25.8937 12.1331 26.7815 14.2759 26.7817 16.5103Z" fill="url(#paint0_linear_1372_175539)"/>
<path d="M17.5742 19.4458L22.9467 24.8201" stroke="#2D4AB8" stroke-width="3.09905" stroke-linecap="round" stroke-linejoin="round"/>
<path d="M20.0395 13.4876C20.0397 15.1542 19.5457 16.7834 18.6199 18.1692C17.6941 19.555 16.3781 20.6351 14.8384 21.2729C13.2987 21.9108 11.6045 22.0777 9.96991 21.7527C8.33533 21.4276 6.83388 20.625 5.65542 19.4466C4.47697 18.2681 3.67445 16.7667 3.34936 15.1321C3.02427 13.4975 3.19121 11.8033 3.82907 10.2636C4.46693 8.72389 5.54706 7.40794 6.93285 6.48215C8.31864 5.55636 9.94785 5.06232 11.6144 5.0625C13.8488 5.06275 15.9916 5.95047 17.5716 7.53042C19.1516 9.11038 20.0393 11.2532 20.0395 13.4876Z" fill="#6A86F2"/>
<path d="M7.37305 13.4299H15.7405" stroke="white" stroke-width="1.5" stroke-linecap="round" stroke-linejoin="round"/>
<path d="M11.5566 17.6135V9.24609" stroke="white" stroke-width="1.5" stroke-linecap="round" stroke-linejoin="round"/>
<defs>
<linearGradient id="paint0_linear_1372_175539" x1="18.3557" y1="8.08521" x2="18.3557" y2="24.9372" gradientUnits="userSpaceOnUse">
<stop stop-color="#FCBA01"/>
<stop offset="1" stop-color="white" stop-opacity="0"/>
</linearGradient>
</defs>
</svg>
