<svg width="168" height="268" viewBox="0 0 168 268" fill="none" xmlns="http://www.w3.org/2000/svg">
<g clip-path="url(#clip0_527_111295)">
<g filter="url(#filter0_d_527_111295)">
<rect x="0.667969" width="166.75" height="269" rx="11.4409" fill="#1E3076"/>
</g>
<g opacity="0.1">
<path d="M22.5312 193.35L30.8905 188.524L32.322 189.357L23.9675 194.179L22.5312 193.35Z" fill="white"/>
<path d="M30.8949 194.279L22.8086 189.611L24.2449 188.783L32.3264 193.446L30.8949 194.279Z" fill="white"/>
<path d="M22.5312 247.105L30.8905 242.279L32.322 243.112L23.9675 247.933L22.5312 247.105Z" fill="white"/>
<path d="M30.8949 248.033L22.8086 243.365L24.2449 242.537L32.3264 247.2L30.8949 248.033Z" fill="white"/>
<path d="M22.4648 31.0896L30.8241 26.2637L32.2556 27.0967L23.9011 31.9178L22.4648 31.0896Z" fill="white"/>
<path d="M30.8246 32.0182L22.7383 27.3502L24.1746 26.522L32.2561 31.1851L30.8246 32.0182Z" fill="white"/>
<path d="M23.0156 139.595L31.3749 134.77L32.8064 135.603L24.4519 140.424L23.0156 139.595Z" fill="white"/>
<path d="M31.3754 140.525L23.2891 135.857L24.7253 135.028L32.8069 139.691L31.3754 140.525Z" fill="white"/>
<path d="M22.6914 85.8415L31.0507 81.0156L32.4821 81.8487L24.1277 86.6698L22.6914 85.8415Z" fill="white"/>
<path d="M31.0512 86.7699L22.9648 82.102L24.4011 81.2737L32.4827 85.9368L31.0512 86.7699Z" fill="white"/>
<path d="M80.8828 192.562L89.2421 187.736L90.6736 188.569L82.3191 193.39L80.8828 192.562Z" fill="white"/>
<path d="M89.2465 193.491L81.1602 188.823L82.5964 187.995L90.678 192.658L89.2465 193.491Z" fill="white"/>
<path d="M80.8828 246.317L89.2421 241.491L90.6736 242.324L82.3191 247.145L80.8828 246.317Z" fill="white"/>
<path d="M89.2465 247.246L81.1602 242.578L82.5964 241.75L90.678 246.413L89.2465 247.246Z" fill="white"/>
<path d="M81.3594 138.808L89.7186 133.982L91.1501 134.815L82.7957 139.636L81.3594 138.808Z" fill="white"/>
<path d="M89.723 139.736L81.6367 135.069L83.073 134.24L91.1545 138.903L89.723 139.736Z" fill="white"/>
<path d="M81.0352 85.0532L89.3944 80.2273L90.8259 81.0603L82.4714 85.8815L81.0352 85.0532Z" fill="white"/>
<path d="M89.391 85.982L81.3047 81.3141L82.741 80.4858L90.8225 85.149L89.391 85.982Z" fill="white"/>
<path d="M80.8086 31.2991L89.1678 26.4731L90.5993 27.3062L82.2449 32.1273L80.8086 31.2991Z" fill="white"/>
<path d="M89.1645 32.2274L81.0781 27.5595L82.5144 26.7312L90.5959 31.3943L89.1645 32.2274Z" fill="white"/>
<path d="M139.234 192.562L147.594 187.736L149.025 188.569L140.671 193.39L139.234 192.562Z" fill="white"/>
<path d="M147.598 193.491L139.512 188.823L140.948 187.995L149.03 192.658L147.598 193.491Z" fill="white"/>
<path d="M139.234 246.317L147.594 241.491L149.025 242.324L140.671 247.145L139.234 246.317Z" fill="white"/>
<path d="M147.598 247.246L139.512 242.578L140.948 241.75L149.03 246.413L147.598 247.246Z" fill="white"/>
<path d="M139.711 138.808L148.07 133.982L149.502 134.815L141.147 139.636L139.711 138.808Z" fill="white"/>
<path d="M148.075 139.736L139.988 135.069L141.425 134.24L149.506 138.903L148.075 139.736Z" fill="white"/>
<path d="M139.383 85.0532L147.742 80.2273L149.174 81.0603L140.819 85.8815L139.383 85.0532Z" fill="white"/>
<path d="M147.739 85.982L139.652 81.3141L141.089 80.4858L149.17 85.149L147.739 85.982Z" fill="white"/>
<path d="M139.156 31.2991L147.516 26.4731L148.947 27.3062L140.593 32.1273L139.156 31.2991Z" fill="white"/>
<path d="M147.512 32.2274L139.426 27.5595L140.862 26.7312L148.944 31.3943L147.512 32.2274Z" fill="white"/>
</g>
</g>
<defs>
<filter id="filter0_d_527_111295" x="-22.2138" y="-17.1613" width="212.513" height="314.763" filterUnits="userSpaceOnUse" color-interpolation-filters="sRGB">
<feFlood flood-opacity="0" result="BackgroundImageFix"/>
<feColorMatrix in="SourceAlpha" type="matrix" values="0 0 0 0 0 0 0 0 0 0 0 0 0 0 0 0 0 0 127 0" result="hardAlpha"/>
<feOffset dy="5.72043"/>
<feGaussianBlur stdDeviation="11.4409"/>
<feComposite in2="hardAlpha" operator="out"/>
<feColorMatrix type="matrix" values="0 0 0 0 0 0 0 0 0 0 0 0 0 0 0 0 0 0 0.12 0"/>
<feBlend mode="normal" in2="BackgroundImageFix" result="effect1_dropShadow_527_111295"/>
<feBlend mode="normal" in="SourceGraphic" in2="effect1_dropShadow_527_111295" result="shape"/>
</filter>
<clipPath id="clip0_527_111295">
<rect x="0.667969" width="167" height="268" rx="12" fill="white"/>
</clipPath>
</defs>
</svg>
