<svg width="168" height="268" viewBox="0 0 168 268" fill="none" xmlns="http://www.w3.org/2000/svg">
<g clip-path="url(#clip0_527_111114)">
<rect x="0.667969" width="166.75" height="269" rx="12" fill="#3B61F4"/>
<g opacity="0.5">
<path opacity="0.3" d="M-585.332 -182.143L442.784 411.44" stroke="white" stroke-width="0.443438"/>
<path opacity="0.3" d="M-485.238 -83.251L290.394 364.561" stroke="white" stroke-width="0.443438"/>
<path opacity="0.3" d="M-513.27 -58.3833L262.363 389.428" stroke="white" stroke-width="0.443438"/>
<path opacity="0.3" d="M-542.207 -34.5771L233.429 413.234" stroke="white" stroke-width="0.443438"/>
<path opacity="0.3" d="M-578.465 -14.4299L197.168 433.382" stroke="white" stroke-width="0.443438"/>
<path opacity="0.3" d="M-610.699 8.27979L164.933 456.091" stroke="white" stroke-width="0.443438"/>
<path opacity="0.3" d="M-633.41 35.9978L142.222 483.809" stroke="white" stroke-width="0.443438"/>
<path opacity="0.3" d="M-675.457 53.0837L100.176 500.895" stroke="white" stroke-width="0.443438"/>
<path opacity="0.3" d="M-705.086 76.3696L70.5466 524.181" stroke="white" stroke-width="0.443438"/>
<path opacity="0.3" d="M-608.195 -236.191L520.644 415.542" stroke="white" stroke-width="0.443438"/>
<path opacity="0.3" d="M-584.965 -264.145L576.152 406.227" stroke="white" stroke-width="0.443438"/>
<path opacity="0.3" d="M-588.578 -307.01L655.211 411.089" stroke="white" stroke-width="0.443438"/>
<path opacity="0.3" d="M-559.09 -413.236L843.105 396.323" stroke="white" stroke-width="0.443438"/>
<path opacity="0.3" d="M-523.344 -432.969L835.711 351.682" stroke="white" stroke-width="0.443438"/>
<path opacity="0.3" d="M-437.781 -425.55L826.891 304.611" stroke="white" stroke-width="0.443438"/>
<path opacity="0.3" d="M-345.113 -413.236L822.93 261.134" stroke="white" stroke-width="0.443438"/>
<path opacity="0.3" d="M-268.094 -409.6L822.934 220.307" stroke="white" stroke-width="0.443438"/>
<path opacity="0.3" d="M-227.148 -426.26L825.844 181.686" stroke="white" stroke-width="0.443438"/>
<path opacity="0.3" d="M-184.723 -443.121L897.468 181.685" stroke="white" stroke-width="0.443438"/>
<path opacity="0.3" d="M-105.434 -438.043L882.631 132.416" stroke="white" stroke-width="0.443438"/>
<path opacity="0.3" d="M-166.176 -514.173L987.945 152.16" stroke="white" stroke-width="0.443438"/>
<path opacity="0.3" d="M28.4102 -443.121L843.108 27.2458" stroke="white" stroke-width="0.443438"/>
<path opacity="0.3" d="M-618.117 -365.464L742.273 419.956" stroke="white" stroke-width="0.443438"/>
<path opacity="0.3" d="M-575.328 -381.531L780.602 401.313" stroke="white" stroke-width="0.443438"/>
<path opacity="0.3" d="M868.423 -246.077L-381.164 475.373" stroke="white" stroke-width="0.443438"/>
<path opacity="0.3" d="M865.836 -203.48L-326.277 484.786" stroke="white" stroke-width="0.443438"/>
<path opacity="0.3" d="M818.065 -134.853L-222.465 465.898" stroke="white" stroke-width="0.443438"/>
<path opacity="0.3" d="M826.891 -99.4333L-173.41 478.091" stroke="white" stroke-width="0.443438"/>
<path opacity="0.3" d="M846.813 -69.8521L-120.812 488.804" stroke="white" stroke-width="0.443438"/>
<path opacity="0.3" d="M846.294 -28.2336L-55.8242 492.605" stroke="white" stroke-width="0.443438"/>
<path opacity="0.3" d="M805.758 35.9978L30.125 483.809" stroke="white" stroke-width="0.443438"/>
<path opacity="0.3" d="M847.808 53.0837L72.1758 500.895" stroke="white" stroke-width="0.443438"/>
<path opacity="0.3" d="M877.433 76.3696L101.801 524.181" stroke="white" stroke-width="0.443438"/>
<path opacity="0.3" d="M890.733 -299.809L-458.477 479.159" stroke="white" stroke-width="0.443438"/>
<path opacity="0.3" d="M816.491 -298.308L-462.977 440.39" stroke="white" stroke-width="0.443438"/>
<path opacity="0.3" d="M866.343 -367.869L-588.27 471.949" stroke="white" stroke-width="0.443438"/>
<path opacity="0.3" d="M808.602 -457.787L-696.332 411.09" stroke="white" stroke-width="0.443438"/>
<path opacity="0.3" d="M738.678 -457.787L-706.348 376.5" stroke="white" stroke-width="0.443438"/>
<path opacity="0.3" d="M665.787 -457.683L-710.195 336.744" stroke="white" stroke-width="0.443438"/>
<path opacity="0.3" d="M505.826 -406.519L-660.422 266.814" stroke="white" stroke-width="0.443438"/>
<path opacity="0.3" d="M435.755 -406.89L-645.891 217.598" stroke="white" stroke-width="0.443438"/>
<path opacity="0.3" d="M419.915 -438.043L-673.898 193.47" stroke="white" stroke-width="0.443438"/>
<path opacity="0.3" d="M326.916 -425.704L-694.949 164.269" stroke="white" stroke-width="0.443438"/>
<path opacity="0.3" d="M311.978 -457.787L-744.48 152.16" stroke="white" stroke-width="0.443438"/>
<path opacity="0.3" d="M263.513 -470.864L-740.582 108.851" stroke="white" stroke-width="0.443438"/>
<path opacity="0.3" d="M169.166 -457.683L-695.98 41.808" stroke="white" stroke-width="0.443438"/>
<path opacity="0.3" d="M842.152 -395.302L-621.598 449.794" stroke="white" stroke-width="0.443438"/>
<path opacity="0.3" d="M879.574 -457.683L-658.824 430.51" stroke="white" stroke-width="0.443438"/>
</g>
</g>
<defs>
<clipPath id="clip0_527_111114">
<rect x="0.667969" width="167" height="268" rx="12" fill="white"/>
</clipPath>
</defs>
</svg>
