<svg width="168" height="268" viewBox="0 0 168 268" fill="none" xmlns="http://www.w3.org/2000/svg">
<g clip-path="url(#clip0_527_111289)">
<g filter="url(#filter0_d_527_111289)">
<rect x="0.667969" width="166.75" height="269" rx="11.4409" fill="#FCBA01"/>
</g>
<g opacity="0.5">
<path fill-rule="evenodd" clip-rule="evenodd" d="M22.0122 18.4507V18.2268H21.5643V18.4507V19.9396H20.0755H19.8516V20.3874H20.0755H21.5643V21.8793V22.1032H22.0122V21.8793V20.3874H23.5041H23.728V19.9396H23.5041H22.0122V18.4507Z" fill="white"/>
<path fill-rule="evenodd" clip-rule="evenodd" d="M82.0903 18.4507V18.2268H81.6425V18.4507V19.9396H80.1536H79.9297V20.3874H80.1536H81.6425V21.8793V22.1032H82.0903V21.8793V20.3874H83.5822H83.8061V19.9396H83.5822H82.0903V18.4507Z" fill="white"/>
<path fill-rule="evenodd" clip-rule="evenodd" d="M142.165 18.4507V18.2268H141.717V18.4507V19.9396H140.228H140.004V20.3874H140.228H141.717V21.8793V22.1032H142.165V21.8793V20.3874H143.656H143.88V19.9396H143.656H142.165V18.4507Z" fill="white"/>
<path fill-rule="evenodd" clip-rule="evenodd" d="M22.0122 78.4271V78.2031H21.5643V78.4271V79.9159H20.0755H19.8516V80.3638H20.0755H21.5643V81.8556V82.0796H22.0122V81.8556V80.3638H23.5041H23.728V79.9159H23.5041H22.0122V78.4271Z" fill="white"/>
<path fill-rule="evenodd" clip-rule="evenodd" d="M82.0903 78.4271V78.2031H81.6425V78.4271V79.9159H80.1536H79.9297V80.3638H80.1536H81.6425V81.8556V82.0796H82.0903V81.8556V80.3638H83.5822H83.8061V79.9159H83.5822H82.0903V78.4271Z" fill="white"/>
<path fill-rule="evenodd" clip-rule="evenodd" d="M142.165 78.4271V78.2031H141.717V78.4271V79.9159H140.228H140.004V80.3638H140.228H141.717V81.8556V82.0796H142.165V81.8556V80.3638H143.656H143.88V79.9159H143.656H142.165V78.4271Z" fill="white"/>
<path fill-rule="evenodd" clip-rule="evenodd" d="M22.0122 138.404V138.18H21.5643V138.404V139.892H20.0755H19.8516V140.34H20.0755H21.5643V141.832V142.056H22.0122V141.832V140.34H23.5041H23.728V139.892H23.5041H22.0122V138.404Z" fill="white"/>
<path fill-rule="evenodd" clip-rule="evenodd" d="M82.0903 138.404V138.18H81.6425V138.404V139.892H80.1536H79.9297V140.34H80.1536H81.6425V141.832V142.056H82.0903V141.832V140.34H83.5822H83.8061V139.892H83.5822H82.0903V138.404Z" fill="white"/>
<path fill-rule="evenodd" clip-rule="evenodd" d="M142.165 138.404V138.18H141.717V138.404V139.892H140.228H140.004V140.34H140.228H141.717V141.832V142.056H142.165V141.832V140.34H143.656H143.88V139.892H143.656H142.165V138.404Z" fill="white"/>
<path fill-rule="evenodd" clip-rule="evenodd" d="M22.0122 198.38V198.156H21.5643V198.38V199.869H20.0755H19.8516V200.317H20.0755H21.5643V201.809V202.033H22.0122V201.809V200.317H23.5041H23.728V199.869H23.5041H22.0122V198.38Z" fill="white"/>
<path fill-rule="evenodd" clip-rule="evenodd" d="M82.0903 198.38V198.156H81.6425V198.38V199.869H80.1536H79.9297V200.317H80.1536H81.6425V201.809V202.033H82.0903V201.809V200.317H83.5822H83.8061V199.869H83.5822H82.0903V198.38Z" fill="white"/>
<path fill-rule="evenodd" clip-rule="evenodd" d="M142.165 198.38V198.156H141.717V198.38V199.869H140.228H140.004V200.317H140.228H141.717V201.809V202.033H142.165V201.809V200.317H143.656H143.88V199.869H143.656H142.165V198.38Z" fill="white"/>
<path fill-rule="evenodd" clip-rule="evenodd" d="M22.0122 258.356V258.132H21.5643V258.356V259.845H20.0755H19.8516V260.293H20.0755H21.5643V261.785V262.009H22.0122V261.785V260.293H23.5041H23.728V259.845H23.5041H22.0122V258.356Z" fill="white"/>
<path fill-rule="evenodd" clip-rule="evenodd" d="M82.0903 258.356V258.132H81.6425V258.356V259.845H80.1536H79.9297V260.293H80.1536H81.6425V261.785V262.009H82.0903V261.785V260.293H83.5822H83.8061V259.845H83.5822H82.0903V258.356Z" fill="white"/>
<path fill-rule="evenodd" clip-rule="evenodd" d="M142.165 258.356V258.132H141.717V258.356V259.845H140.228H140.004V260.293H140.228H141.717V261.785V262.009H142.165V261.785V260.293H143.656H143.88V259.845H143.656H142.165V258.356Z" fill="white"/>
</g>
</g>
<defs>
<filter id="filter0_d_527_111289" x="-22.2138" y="-17.1613" width="212.513" height="314.763" filterUnits="userSpaceOnUse" color-interpolation-filters="sRGB">
<feFlood flood-opacity="0" result="BackgroundImageFix"/>
<feColorMatrix in="SourceAlpha" type="matrix" values="0 0 0 0 0 0 0 0 0 0 0 0 0 0 0 0 0 0 127 0" result="hardAlpha"/>
<feOffset dy="5.72043"/>
<feGaussianBlur stdDeviation="11.4409"/>
<feComposite in2="hardAlpha" operator="out"/>
<feColorMatrix type="matrix" values="0 0 0 0 0 0 0 0 0 0 0 0 0 0 0 0 0 0 0.12 0"/>
<feBlend mode="normal" in2="BackgroundImageFix" result="effect1_dropShadow_527_111289"/>
<feBlend mode="normal" in="SourceGraphic" in2="effect1_dropShadow_527_111289" result="shape"/>
</filter>
<clipPath id="clip0_527_111289">
<rect x="0.667969" width="167" height="268" rx="12" fill="white"/>
</clipPath>
</defs>
</svg>
