<svg width="30" height="30" viewBox="0 0 30 30" fill="none" xmlns="http://www.w3.org/2000/svg">
<path d="M25.775 7.5C26.0502 7.5 26.3141 7.65652 26.5086 7.93511C26.7032 8.21371 26.8125 8.59158 26.8125 8.98557L26.8125 25.213C26.8116 25.6368 26.6936 26.0429 26.4843 26.3426C26.275 26.6423 25.9914 26.8112 25.6955 26.8125L12.3615 26.8125C12.067 26.8112 11.7848 26.6431 11.5766 26.3449C11.3683 26.0467 11.2509 25.6427 11.25 25.221L11.25 9.09947C11.2509 8.67567 11.3689 8.26959 11.5782 7.96992C11.7875 7.67024 12.0711 7.50131 12.367 7.5L25.775 7.5Z" fill="url(#paint0_linear_560_118855)" fill-opacity="0.8"/>
<g clip-path="url(#clip0_560_118855)">
<path d="M17.4062 3.41602H4.53125C4.08683 3.41602 3.72656 3.77629 3.72656 4.2207V20.7168C3.72656 21.1612 4.08683 21.5215 4.53125 21.5215H17.4062C17.8507 21.5215 18.2109 21.1612 18.2109 20.7168V4.2207C18.2109 3.77629 17.8507 3.41602 17.4062 3.41602Z" fill="#6A86F2" stroke="#6A86F2" stroke-width="1.20703" stroke-linecap="round" stroke-linejoin="round"/>
<mask id="path-3-outside-1_560_118855" maskUnits="userSpaceOnUse" x="5.875" y="7.75" width="10" height="10" fill="black">
<rect fill="white" x="5.875" y="7.75" width="10" height="10"/>
<path d="M11.0038 15.3125L14.0307 12.0376C14.0876 11.9807 14.123 11.9059 14.1309 11.8259C14.1389 11.7459 14.1189 11.6655 14.0743 11.5986L12.8455 9.90482C12.8137 9.8572 12.7707 9.81815 12.7203 9.79115C12.6698 9.76414 12.6135 9.75 12.5562 9.75H9.45049C9.39326 9.75 9.33692 9.76414 9.28646 9.79115C9.236 9.81815 9.19299 9.8572 9.16124 9.90482L7.93332 11.5986C7.88877 11.6655 7.86876 11.7459 7.8767 11.8259C7.88465 11.9059 7.92005 11.9807 7.97689 12.0376L11.0038 15.3125Z"/>
</mask>
<path d="M11.0038 15.3125L9.90227 16.3306C10.1862 16.6378 10.5855 16.8125 11.0038 16.8125C11.4221 16.8125 11.8214 16.6378 12.1054 16.3306L11.0038 15.3125ZM14.0307 12.0376L12.9698 10.9772C12.956 10.991 12.9425 11.0051 12.9292 11.0194L14.0307 12.0376ZM14.0743 11.5986L15.323 10.7675C15.3118 10.7507 15.3003 10.7341 15.2884 10.7177L14.0743 11.5986ZM12.8455 9.90482L11.5974 10.7368C11.6084 10.7533 11.6197 10.7696 11.6313 10.7857L12.8455 9.90482ZM12.5562 9.75L12.5563 8.25H12.5562V9.75ZM9.45049 9.75V8.25H9.45038L9.45049 9.75ZM9.16124 9.90482L10.3757 10.7852C10.3872 10.7693 10.3984 10.7532 10.4094 10.7368L9.16124 9.90482ZM7.93332 11.5986L6.71888 10.7182C6.70713 10.7344 6.69571 10.7508 6.68462 10.7675L7.93332 11.5986ZM7.97689 12.0376L9.07844 11.0194C9.06519 11.0051 9.05165 10.991 9.03785 10.9772L7.97689 12.0376ZM12.1054 16.3306L15.1323 13.0557L12.9292 11.0194L9.90227 14.2944L12.1054 16.3306ZM15.0917 13.0979C15.3935 12.796 15.5814 12.3989 15.6236 11.974L12.6383 11.6777C12.6646 11.4129 12.7817 11.1654 12.9698 10.9772L15.0917 13.0979ZM15.6236 11.974C15.6658 11.5492 15.5596 11.1229 15.323 10.7675L12.8256 12.4297C12.6782 12.2082 12.612 11.9425 12.6383 11.6777L15.6236 11.974ZM15.2884 10.7177L14.0596 9.02397L11.6313 10.7857L12.8602 12.4795L15.2884 10.7177ZM14.0936 9.07282C13.9249 8.81974 13.6963 8.61221 13.4281 8.46867L12.0124 11.1136C11.8451 11.0241 11.7026 10.8947 11.5974 10.7368L14.0936 9.07282ZM13.4281 8.46867C13.16 8.32514 12.8605 8.25002 12.5563 8.25L12.5561 11.25C12.3664 11.25 12.1796 11.2031 12.0124 11.1136L13.4281 8.46867ZM12.5562 8.25H9.45049V11.25H12.5562V8.25ZM9.45038 8.25C9.14622 8.25002 8.84676 8.32514 8.5786 8.46867L9.99432 11.1136C9.82707 11.2031 9.64031 11.25 9.4506 11.25L9.45038 8.25ZM8.5786 8.46867C8.31044 8.61221 8.08185 8.81973 7.91313 9.07282L10.4094 10.7368C10.3041 10.8947 10.1616 11.0241 9.99432 11.1136L8.5786 8.46867ZM7.9468 9.0244L6.71888 10.7182L9.14776 12.479L10.3757 10.7852L7.9468 9.0244ZM6.68462 10.7675C6.44808 11.1229 6.34187 11.5492 6.38404 11.974L9.36937 11.6777C9.39565 11.9425 9.32945 12.2082 9.18202 12.4297L6.68462 10.7675ZM6.38404 11.974C6.42621 12.3989 6.61416 12.796 6.91594 13.0979L9.03785 10.9772C9.22594 11.1654 9.34308 11.4129 9.36937 11.6777L6.38404 11.974ZM6.87535 13.0557L9.90227 16.3306L12.1054 14.2944L9.07844 11.0194L6.87535 13.0557Z" fill="white" mask="url(#path-3-outside-1_560_118855)"/>
</g>
<defs>
<linearGradient id="paint0_linear_560_118855" x1="16.7833" y1="7.00481" x2="16.7833" y2="25.8221" gradientUnits="userSpaceOnUse">
<stop stop-color="#FCBA01"/>
<stop offset="1" stop-color="white"/>
</linearGradient>
<clipPath id="clip0_560_118855">
<rect width="19.3125" height="19.3125" fill="white" transform="translate(1.3125 2.8125)"/>
</clipPath>
</defs>
</svg>
