<svg width="33" height="31" viewBox="0 0 33 31" fill="none" xmlns="http://www.w3.org/2000/svg">
<path d="M9.60362 27.4316L26.3523 27.4316C27.0638 27.4316 27.6406 26.8548 27.6406 26.1433L27.6406 9.39464C27.6406 8.6831 27.0638 8.10628 26.3523 8.10628L9.60362 8.10628C8.89208 8.10628 8.31526 8.6831 8.31526 9.39464L8.31526 26.1433C8.31526 26.8548 8.89208 27.4316 9.60362 27.4316Z" fill="url(#paint0_linear_560_118595)" fill-opacity="0.8"/>
<path d="M20.1698 3.98352H3.42117C2.70963 3.98352 2.13281 4.56034 2.13281 5.27188V22.0205C2.13281 22.7321 2.70963 23.3089 3.42117 23.3089H20.1698C20.8814 23.3089 21.4582 22.7321 21.4582 22.0205V5.27188C21.4582 4.56034 20.8814 3.98352 20.1698 3.98352Z" fill="#6A86F2"/>
<path d="M15.0156 13.0149V7.86145" stroke="white" stroke-width="1.5" stroke-linecap="round" stroke-linejoin="round"/>
<path d="M15.0156 19.4567V16.88" stroke="white" stroke-width="1.5" stroke-linecap="round" stroke-linejoin="round"/>
<path fill-rule="evenodd" clip-rule="evenodd" d="M16.951 14.9474C16.951 15.3296 16.8377 15.7033 16.6253 16.0211C16.413 16.3389 16.1111 16.5866 15.758 16.7329C15.4049 16.8791 15.0163 16.9174 14.6415 16.8428C14.2666 16.7683 13.9222 16.5842 13.652 16.3139C13.3817 16.0437 13.1976 15.6993 13.1231 15.3244C13.0485 14.9496 13.0868 14.561 13.233 14.2079C13.3793 13.8548 13.627 13.5529 13.9448 13.3406C14.2626 13.1282 14.6363 13.0149 15.0185 13.0149C15.531 13.0149 16.0226 13.2185 16.385 13.5809C16.7474 13.9433 16.951 14.4349 16.951 14.9474Z" stroke="white" stroke-width="1.5" stroke-linecap="round" stroke-linejoin="round"/>
<path d="M8.57422 11.7266V19.4567" stroke="white" stroke-width="1.5" stroke-linecap="round" stroke-linejoin="round"/>
<path fill-rule="evenodd" clip-rule="evenodd" d="M10.5057 9.79399C10.5057 9.41177 10.3924 9.03813 10.18 8.72033C9.96766 8.40252 9.66584 8.15483 9.31271 8.00856C8.95959 7.86229 8.57102 7.82402 8.19614 7.89858C7.82127 7.97315 7.47692 8.15721 7.20665 8.42748C6.93638 8.69775 6.75233 9.04209 6.67776 9.41697C6.60319 9.79184 6.64146 10.1804 6.78773 10.5335C6.934 10.8867 7.1817 11.1885 7.4995 11.4008C7.81731 11.6132 8.19094 11.7265 8.57316 11.7265C9.0857 11.7265 9.57725 11.5229 9.93967 11.1605C10.3021 10.7981 10.5057 10.3065 10.5057 9.79399V9.79399Z" stroke="white" stroke-width="1.5" stroke-linecap="round" stroke-linejoin="round"/>
<defs>
<linearGradient id="paint0_linear_560_118595" x1="15.1865" y1="7.61076" x2="15.1865" y2="26.4406" gradientUnits="userSpaceOnUse">
<stop stop-color="#FDCB3F"/>
<stop offset="1" stop-color="white"/>
</linearGradient>
</defs>
</svg>
