<svg width="20" height="20" viewBox="0 0 20 20" fill="none" xmlns="http://www.w3.org/2000/svg">
<path d="M18.125 0.625H1.875C1.18464 0.625 0.625 1.18464 0.625 1.875V18.125C0.625 18.8154 1.18464 19.375 1.875 19.375H18.125C18.8154 19.375 19.375 18.8154 19.375 18.125V1.875C19.375 1.18464 18.8154 0.625 18.125 0.625Z" stroke="#3B61F4" stroke-width="1.25" stroke-linecap="round" stroke-linejoin="round"/>
<path d="M13.125 9.38745V4.38745" stroke="#3B61F4" stroke-width="1.25" stroke-linecap="round" stroke-linejoin="round"/>
<path d="M13.125 15.6375V13.1375" stroke="#3B61F4" stroke-width="1.25" stroke-linecap="round" stroke-linejoin="round"/>
<path fill-rule="evenodd" clip-rule="evenodd" d="M15 11.2625C15 11.6333 14.89 11.9958 14.684 12.3041C14.478 12.6125 14.1851 12.8528 13.8425 12.9947C13.4999 13.1366 13.1229 13.1738 12.7592 13.1014C12.3955 13.0291 12.0614 12.8505 11.7992 12.5883C11.537 12.3261 11.3584 11.992 11.286 11.6282C11.2137 11.2645 11.2508 10.8875 11.3927 10.5449C11.5346 10.2023 11.775 9.90947 12.0833 9.70345C12.3916 9.49742 12.7542 9.38745 13.125 9.38745C13.6223 9.38745 14.0992 9.58499 14.4508 9.93663C14.8025 10.2883 15 10.7652 15 11.2625Z" stroke="#3B61F4" stroke-width="1.25" stroke-linecap="round" stroke-linejoin="round"/>
<path d="M6.875 8.13745V15.6375" stroke="#3B61F4" stroke-width="1.25" stroke-linecap="round" stroke-linejoin="round"/>
<path fill-rule="evenodd" clip-rule="evenodd" d="M8.75 6.26245C8.75 5.89161 8.64003 5.5291 8.43401 5.22076C8.22798 4.91242 7.93514 4.67209 7.59253 4.53018C7.24992 4.38826 6.87292 4.35113 6.50921 4.42348C6.14549 4.49583 5.8114 4.6744 5.54918 4.93663C5.28695 5.19885 5.10838 5.53294 5.03603 5.89666C4.96368 6.26037 5.00081 6.63737 5.14273 6.97998C5.28464 7.32259 5.52496 7.61543 5.83331 7.82146C6.14165 8.02749 6.50416 8.13745 6.875 8.13745C7.37228 8.13745 7.8492 7.93991 8.20083 7.58828C8.55246 7.23665 8.75 6.75973 8.75 6.26245V6.26245Z" stroke="#3B61F4" stroke-width="1.25" stroke-linecap="round" stroke-linejoin="round"/>
</svg>
