<svg width="30" height="31" viewBox="0 0 30 31" fill="none" xmlns="http://www.w3.org/2000/svg">
<path d="M6.34766 10.1877V2.9375" stroke="#2D4AB8" stroke-width="3" stroke-linecap="round" stroke-linejoin="round"/>
<path d="M16.0156 10.1877V2.9375" stroke="#2D4AB8" stroke-width="3" stroke-linecap="round" stroke-linejoin="round"/>
<path d="M18.8154 29.1877C16.2515 29.1877 13.7927 28.1692 11.9798 26.3563C10.1669 24.5434 9.14844 22.0845 9.14844 19.5207V14.6872C9.14844 14.0463 9.40306 13.4316 9.85628 12.9784C10.3095 12.5251 10.9242 12.2705 11.5652 12.2705H26.0656C26.7065 12.2705 27.3212 12.5251 27.7745 12.9784C28.2277 13.4316 28.4823 14.0463 28.4823 14.6872V19.5207C28.4823 22.0845 27.4638 24.5434 25.6509 26.3563C23.838 28.1692 21.3792 29.1877 18.8154 29.1877Z" fill="url(#paint0_linear_560_118638)" fill-opacity="0.8"/>
<path d="M11.1826 25.3717C8.61873 25.3717 6.15991 24.3533 4.34701 22.5404C2.5341 20.7274 1.51563 18.2686 1.51562 15.7048V10.8713C1.51562 10.2304 1.77024 9.61566 2.22347 9.16243C2.6767 8.70921 3.2914 8.45459 3.93236 8.45459H18.4328C19.0737 8.45459 19.6884 8.70921 20.1417 9.16243C20.5949 9.61566 20.8495 10.2304 20.8495 10.8713V15.7048C20.8495 18.2686 19.831 20.7274 18.0181 22.5404C16.2052 24.3533 13.7464 25.3717 11.1826 25.3717Z" fill="#6A86F2"/>
<path d="M8.76562 13.4839H13.5991" stroke="white" stroke-width="1.5" stroke-linecap="round" stroke-linejoin="round"/>
<defs>
<linearGradient id="paint0_linear_560_118638" x1="21.608" y1="29.6214" x2="21.608" y2="13.1381" gradientUnits="userSpaceOnUse">
<stop stop-color="white"/>
<stop offset="1" stop-color="#FCBA01"/>
</linearGradient>
</defs>
</svg>
