<svg width="20" height="24" viewBox="0 0 20 24" fill="none" xmlns="http://www.w3.org/2000/svg">
<path d="M5.00195 7L5.00195 1" stroke="#3B61F4" stroke-width="1.25" stroke-linecap="round" stroke-linejoin="round"/>
<path d="M15.002 7L15.002 1" stroke="#3B61F4" stroke-width="1.25" stroke-linecap="round" stroke-linejoin="round"/>
<path d="M10.1845 23.2466C7.78644 23.2466 5.48659 22.294 3.7909 20.5983C2.09521 18.9026 1.14258 16.6027 1.14258 14.2047V9.3712C1.14258 8.896 1.33135 8.44027 1.66737 8.10425C2.00338 7.76824 2.45911 7.57947 2.93431 7.57947H17.4347C17.9099 7.57947 18.3657 7.76824 18.7017 8.10425C19.0377 8.44027 19.2265 8.896 19.2265 9.3712V14.2047C19.2265 16.6027 18.2738 18.9026 16.5781 20.5983C14.8824 22.294 12.5826 23.2466 10.1845 23.2466Z" stroke="#3B61F4" stroke-width="1.25"/>
<path d="M7.76758 11.9839H12.601" stroke="#3B61F4" stroke-width="1.25" stroke-linecap="round" stroke-linejoin="round"/>
</svg>
