<svg width="30" height="30" viewBox="0 0 30 30" fill="none" xmlns="http://www.w3.org/2000/svg">
<path d="M27.5142 8.55603C27.8616 8.55603 28.1948 8.69406 28.4405 8.93973C28.6862 9.18541 28.8242 9.51862 28.8242 9.86606L28.8242 24.176C28.8231 24.5497 28.6741 24.9078 28.4098 25.172C28.1456 25.4363 27.7875 25.5853 27.4138 25.5864L10.5772 25.5864C10.2054 25.5853 9.84906 25.437 9.58611 25.1741C9.32315 24.9111 9.17492 24.5548 9.17377 24.1829L9.17377 9.9665C9.17492 9.59278 9.32389 9.23469 9.58815 8.97042C9.85242 8.70616 10.2105 8.55719 10.5842 8.55604L27.5142 8.55603Z" fill="url(#paint0_linear_560_118792)" fill-opacity="0.8"/>
<path d="M2.62253 22.0929C2.27509 22.0929 1.94188 21.9549 1.6962 21.7092C1.45052 21.4635 1.3125 21.1303 1.3125 20.7829V6.47297C1.31365 6.09924 1.46262 5.74115 1.72689 5.47689C1.99115 5.21262 2.34924 5.06365 2.72297 5.0625H19.5595C19.9313 5.06365 20.2877 5.21189 20.5506 5.47484C20.8136 5.7378 20.9618 6.09411 20.963 6.46598V20.6824C20.9618 21.0562 20.8128 21.4142 20.5486 21.6785C20.2843 21.9428 19.9262 22.0917 19.5525 22.0929H2.62253Z" fill="#6A86F2"/>
<path d="M1.3125 6.47297V8.55591L20.963 8.45548V6.46598C20.9618 6.09411 20.8136 5.7378 20.5506 5.47484C20.2877 5.21189 19.9313 5.06365 19.5595 5.0625H2.72297C2.34924 5.06365 1.99115 5.21262 1.72689 5.47689C1.46262 5.74115 1.31365 6.09924 1.3125 6.47297Z" fill="#2D4AB8"/>
<path d="M12.1914 14.7927H15.3752" stroke="white" stroke-width="1.5" stroke-linecap="round" stroke-linejoin="round"/>
<path d="M6.92578 12.6702L9.04831 14.7927L6.92578 16.9152" stroke="white" stroke-width="1.5" stroke-linecap="round" stroke-linejoin="round"/>
<defs>
<linearGradient id="paint0_linear_560_118792" x1="16.1606" y1="8.11936" x2="16.1606" y2="24.7131" gradientUnits="userSpaceOnUse">
<stop stop-color="#FCBA01"/>
<stop offset="1" stop-color="white"/>
</linearGradient>
</defs>
</svg>
