<svg width="22" height="22" viewBox="0 0 22 22" fill="none" xmlns="http://www.w3.org/2000/svg">
<path d="M8.71245 20.0344L19.3353 20.0344C19.9872 20.0344 20.5156 19.506 20.5156 18.8541L20.5156 10.5919C20.5156 9.94001 19.9872 9.41156 19.3353 9.41156L8.71245 9.41156C8.06057 9.41156 7.53213 9.94001 7.53213 10.5919L7.53213 18.8541C7.53213 19.506 8.06057 20.0344 8.71245 20.0344Z" fill="url(#paint0_linear_310_106022)" fill-opacity="0.8"/>
<path d="M2.81055 8.63879V5.688C2.81055 4.59236 3.24579 3.54159 4.02052 2.76686C4.79526 1.99213 5.84602 1.55688 6.94166 1.55688C8.0373 1.55688 9.08806 1.99213 9.8628 2.76686C10.6375 3.54159 11.0728 4.59236 11.0728 5.688V8.63879" stroke="#CFD9FF" stroke-width="1.71551" stroke-linecap="round" stroke-linejoin="round"/>
<path d="M12.2544 7.05078H1.63149C0.979618 7.05078 0.451172 7.57923 0.451172 8.2311V16.4933C0.451172 17.1452 0.979618 17.6736 1.63149 17.6736H12.2544C12.9062 17.6736 13.4347 17.1452 13.4347 16.4933V8.2311C13.4347 7.57923 12.9062 7.05078 12.2544 7.05078Z" fill="white"/>
<path d="M6.94336 11.1821V13.5428" stroke="#2D4AB8" stroke-width="1.0722" stroke-linecap="round" stroke-linejoin="round"/>
<defs>
<linearGradient id="paint0_linear_310_106022" x1="12.1485" y1="9.13918" x2="12.1485" y2="19.4897" gradientUnits="userSpaceOnUse">
<stop stop-color="#FCBA01"/>
<stop offset="1" stop-color="white" stop-opacity="0"/>
</linearGradient>
</defs>
</svg>
