<svg width="28" height="30" viewBox="0 0 28 30" fill="none" xmlns="http://www.w3.org/2000/svg">
<path d="M25.6796 8.55591C26.0039 8.55591 26.3149 8.69393 26.5442 8.93961C26.7735 9.18529 26.9023 9.5185 26.9023 9.86594L26.9023 24.1758C26.9013 24.5496 26.7622 24.9077 26.5156 25.1719C26.2689 25.4362 25.9347 25.5852 25.5859 25.5863L9.87184 25.5863C9.52476 25.5852 9.1922 25.4369 8.94677 25.174C8.70135 24.911 8.563 24.5547 8.56192 24.1828L8.56192 9.96638C8.56299 9.59265 8.70204 9.23456 8.94868 8.9703C9.19533 8.70604 9.52955 8.55706 9.87836 8.55591L25.6796 8.55591Z" fill="url(#paint0_linear_871_175881)"/>
<path d="M2.44926 22.0929C2.12498 22.0929 1.81398 21.9549 1.58468 21.7092C1.35538 21.4635 1.22656 21.1303 1.22656 20.7829V6.47297C1.22764 6.09924 1.36668 5.74115 1.61332 5.47689C1.85997 5.21262 2.19419 5.06365 2.543 5.0625H18.2571C18.6042 5.06365 18.9367 5.21189 19.1821 5.47484C19.4276 5.7378 19.5659 6.09411 19.567 6.46598V20.6824C19.5659 21.0562 19.4269 21.4142 19.1802 21.6785C18.9336 21.9428 18.5994 22.0917 18.2505 22.0929H2.44926Z" fill="#6A86F2"/>
<path d="M1.22656 6.47297V8.55591L19.567 8.45548V6.46598C19.5659 6.09411 19.4276 5.7378 19.1821 5.47484C18.9367 5.21189 18.6042 5.06365 18.2571 5.0625H2.543C2.19419 5.06365 1.85997 5.21262 1.61332 5.47689C1.36668 5.74115 1.22764 6.09924 1.22656 6.47297Z" fill="#2D4AB8"/>
<path d="M8.42187 15.8445H6V18.2664" stroke="white" stroke-width="1.5" stroke-linecap="round" stroke-linejoin="round"/>
<path d="M13.3737 16.3179C13.1172 17.0675 12.6205 17.7116 11.9606 18.1501C11.3006 18.5885 10.5144 18.797 9.72395 18.743C8.93347 18.6891 8.18289 18.3758 7.58866 17.8517C6.99444 17.3276 6.58979 16.622 6.4375 15.8445" stroke="white" stroke-width="1.5" stroke-linecap="round" stroke-linejoin="round"/>
<path d="M11.3281 13.907H13.75V11.4851" stroke="white" stroke-width="1.5" stroke-linecap="round" stroke-linejoin="round"/>
<path d="M6.375 13.4335C6.63152 12.6839 7.12828 12.0398 7.7882 11.6013C8.44812 11.1628 9.23431 10.9544 10.0248 11.0084C10.8153 11.0623 11.5659 11.3756 12.1601 11.8997C12.7543 12.4238 13.159 13.1294 13.3112 13.9069" stroke="white" stroke-width="1.5" stroke-linecap="round" stroke-linejoin="round"/>
<defs>
<linearGradient id="paint0_linear_871_175881" x1="15.083" y1="8.11923" x2="15.083" y2="24.713" gradientUnits="userSpaceOnUse">
<stop stop-color="#FCBA01"/>
<stop offset="1" stop-color="#EDEEF3" stop-opacity="0"/>
</linearGradient>
</defs>
</svg>
