<svg width="176" height="63" viewBox="0 0 176 63" fill="none" xmlns="http://www.w3.org/2000/svg">
<path d="M172.5 1.24023H3.5C2.1 1.24023 1 2.44023 1 3.84023V59.8402C1 61.3402 2.1 62.4402 3.5 62.4402H172.5C173.9 62.4402 175 61.2402 175 59.8402V3.84023C175 2.44023 173.9 1.24023 172.5 1.24023Z" fill="white" stroke="#0450C8" stroke-width="0.5" stroke-miterlimit="10"/>
<path d="M3.7 1.24023H63.1V62.4402H3.7C2.2 62.4402 1 61.2402 1 59.8402V3.84023C1 2.44023 2.2 1.24023 3.7 1.24023Z" fill="#0450C8"/>
<path d="M32.1992 12.5403L33.0992 14.4403L35.0992 14.7403L33.5992 16.1403L33.8992 18.1403L32.0992 17.1403L30.2992 18.1403L30.5992 16.1403L29.0992 14.7403L31.0992 14.4403L32.1992 12.5403ZM23.4992 15.1403L24.3992 17.0403L26.3992 17.3403L24.8992 18.7403L25.1992 20.7403L23.3992 19.7403L21.5992 20.7403L21.8992 18.7403L20.4992 17.2403L22.4992 16.9403L23.4992 15.1403ZM17.2992 20.8403L18.1992 22.7403L20.1992 23.0403L18.6992 24.4403L18.9992 26.4403L17.1992 25.4403L15.3992 26.4403L15.6992 24.4403L14.1992 23.0403L16.1992 22.7403L17.2992 20.8403ZM40.8992 15.1403L39.9992 16.9403L37.9992 17.2403L39.4992 18.6403L39.1992 20.6403L40.9992 19.6403L42.7992 20.6403L42.4992 18.6403L43.9992 17.2403L41.9992 16.9403L40.8992 15.1403ZM23.4992 43.1403L24.3992 45.0403L26.3992 45.3403L24.8992 46.7403L25.1992 48.7403L23.3992 47.7403L21.5992 48.7403L21.8992 46.7403L20.4992 45.2403L22.4992 44.9403L23.4992 43.1403ZM40.8992 43.1403L39.9992 44.9403L37.9992 45.2403L39.4992 46.6403L39.1992 48.6403L40.9992 47.6403L42.7992 48.6403L42.4992 46.6403L43.9992 45.2403L41.9992 44.9403L40.8992 43.1403ZM47.0992 20.8403L46.1992 22.7403L44.1992 23.0403L45.6992 24.4403L45.3992 26.4403L47.1992 25.4403L48.9992 26.4403L48.6992 24.4403L50.1992 23.0403L48.1992 22.7403L47.0992 20.8403ZM17.2992 37.2403L18.1992 39.1403L20.1992 39.4403L18.6992 40.8403L18.9992 42.8403L17.1992 41.8403L15.3992 42.8403L15.6992 40.8403L14.1992 39.4403L16.1992 39.1403L17.2992 37.2403ZM47.0992 37.2403L46.1992 39.1403L44.1992 39.4403L45.6992 40.8403L45.3992 42.8403L47.1992 41.8403L48.9992 42.8403L48.6992 40.8403L50.1992 39.4403L48.1992 39.1403L47.0992 37.2403ZM49.0992 29.6403L49.9992 31.5403L51.9992 31.8403L50.5992 33.2403L50.8992 35.2403L49.0992 34.2403L47.2992 35.2403L47.5992 33.2403L46.0992 31.8403L48.0992 31.5403L49.0992 29.6403ZM15.1992 29.6403L16.0992 31.5403L18.0992 31.8403L16.6992 33.2403L16.9992 35.2403L15.1992 34.2403L13.3992 35.2403L13.6992 33.2403L12.1992 31.8403L14.1992 31.5403L15.1992 29.6403ZM32.1992 46.7403L33.0992 48.6403L35.0992 48.9403L33.5992 50.2403L33.8992 52.2403L32.0992 51.2403L30.2992 52.2403L30.5992 50.2403L29.0992 48.8403L31.0992 48.5403L32.1992 46.7403Z" fill="#FFBC01"/>
<path d="M32.2 26.1401C30.3 26.1401 28.7 27.6401 28.7 29.5401V30.1401C28.1 30.1401 27.5 30.6401 27.5 31.2401V36.9401C27.5 37.5401 28 38.0401 28.7 38.0401H35.7C36.3 38.0401 36.9 37.5401 36.9 36.9401V31.2401C36.9 30.6401 36.4 30.1401 35.7 30.1401V29.5401C35.7 27.6401 34.1 26.1401 32.2 26.1401ZM32.2 27.2401C33.5 27.2401 34.5 28.2401 34.5 29.5401V30.1401H29.9V29.5401C29.9 28.2401 30.9 27.2401 32.2 27.2401ZM29.9 33.5401C30.2 33.5401 30.5 33.8401 30.5 34.1401C30.5 34.4401 30.2 34.7401 29.9 34.7401C29.6 34.7401 29.3 34.4401 29.3 34.1401C29.3 33.7401 29.5 33.5401 29.9 33.5401ZM32.2 33.5401C32.5 33.5401 32.8 33.8401 32.8 34.1401C32.8 34.4401 32.5 34.7401 32.2 34.7401C31.9 34.7401 31.6 34.4401 31.6 34.1401C31.6 33.7401 31.9 33.5401 32.2 33.5401ZM34.5 33.5401C34.8 33.5401 35.1 33.8401 35.1 34.1401C35.1 34.4401 34.8 34.7401 34.5 34.7401C34.2 34.7401 33.9 34.4401 33.9 34.1401C33.9 33.7401 34.2 33.5401 34.5 33.5401Z" fill="white"/>
<path d="M35.6992 32.3403H28.6992V35.7403H35.6992V32.3403Z" fill="white"/>
<path d="M81.66 21.6861V23.7921H85.656V24.0081L85.494 23.9901C85.368 26.1861 83.442 26.9601 81.984 26.9601C79.788 26.9601 78.33 25.3401 78.33 22.6581C78.33 19.9581 79.806 18.3381 82.056 18.3381C83.442 18.3381 84.63 18.9501 85.134 20.3361H87.996C87.438 17.6721 85.188 15.9801 82.092 15.9801C78.204 15.9801 75.648 18.8061 75.648 22.8921C75.648 26.8701 78.186 29.3001 81.642 29.3001C83.424 29.3001 84.81 28.6701 85.692 27.5541L85.908 29.1201H88.068V21.6861H81.66ZM90.3037 29.1201V16.1601H95.0377C99.0877 16.1601 101.554 18.8241 101.554 22.6401C101.554 26.5101 99.0877 29.1201 95.0377 29.1201H90.3037ZM92.8777 26.8521H94.8937C97.3417 26.8521 98.8537 25.2141 98.8537 22.5681C98.8537 19.9221 97.3417 18.4281 94.8937 18.4281H92.8777V26.8521ZM103.399 29.1201H106.009V24.7461H108.817C111.409 24.7461 113.353 22.9821 113.353 20.4441C113.353 17.9421 111.445 16.1601 108.817 16.1601H103.399V29.1201ZM106.009 22.5321V18.4281H108.439C109.843 18.4281 110.635 19.1841 110.635 20.4621C110.635 21.7401 109.843 22.5321 108.439 22.5321H106.009ZM115.159 29.1201H117.715V24.7641H120.163L122.323 29.1201H125.221L122.827 24.4221C124.429 23.9361 125.455 22.4061 125.455 20.3901C125.455 17.7801 123.547 16.1601 120.991 16.1601H115.159V29.1201ZM117.715 22.5861V18.4281H120.577C121.999 18.4281 122.755 19.1301 122.755 20.4801C122.755 21.8301 121.999 22.5861 120.577 22.5861H117.715Z" fill="#090C17"/>
<path d="M83.028 43.0541H84.648C84.126 41.0201 82.524 39.8321 80.382 39.8321C77.718 39.8321 75.936 41.7041 75.936 44.5481C75.936 47.3921 77.718 49.2821 80.382 49.2821C82.56 49.2821 84.162 47.9681 84.666 45.9341H83.1C82.65 47.2481 81.66 47.9861 80.382 47.9861C78.726 47.9861 77.448 46.8341 77.448 44.5481C77.448 42.2981 78.708 41.1101 80.4 41.1101C81.624 41.1101 82.596 41.8301 83.028 43.0541ZM86.1665 44.5841C86.1665 47.3741 88.0205 49.3001 90.7745 49.3001C93.5285 49.3001 95.4005 47.3741 95.4005 44.5841C95.4005 41.7761 93.5285 39.8321 90.7745 39.8321C88.0205 39.8321 86.1665 41.7761 86.1665 44.5841ZM87.6785 44.5661C87.6785 42.4421 88.9205 41.0921 90.7745 41.0921C92.6285 41.0921 93.8705 42.4421 93.8705 44.5661C93.8705 46.6541 92.6285 48.0221 90.7745 48.0221C88.9205 48.0221 87.6785 46.6541 87.6785 44.5661ZM107.5 39.8321C106.348 39.8321 105.142 40.3721 104.584 41.5961C104.062 40.4261 102.982 39.8321 101.614 39.8321C100.57 39.8321 99.5983 40.2281 99.1123 41.0741L98.8963 40.0121H97.6003V49.1201H99.0763V43.6841C99.0763 42.1361 99.9403 41.2001 101.38 41.2001C102.694 41.2001 103.468 42.0641 103.468 43.7561V49.1201H104.926V43.7741C104.98 42.0101 105.97 41.2001 107.212 41.2001C108.49 41.2001 109.318 41.9021 109.318 43.6301V49.1201H110.812V43.3781C110.812 41.1641 109.498 39.8321 107.5 39.8321ZM118.086 39.8321C116.682 39.8321 115.404 40.4621 114.756 41.5241L114.594 40.0121H113.28V52.7201H114.756V47.6441C115.386 48.7241 116.682 49.3001 118.086 49.3001C120.48 49.3001 122.424 47.5901 122.424 44.5841C122.424 41.5241 120.444 39.8321 118.086 39.8321ZM117.852 48.0041C116.142 48.0041 114.81 46.7441 114.81 44.6201C114.81 42.4781 116.142 41.1281 117.852 41.1461C119.652 41.1461 120.894 42.4601 120.894 44.5841C120.894 46.7261 119.634 48.0041 117.852 48.0041ZM126.111 35.8721H124.635V49.1201H126.111V35.8721ZM128.498 38.0501H130.334V36.3221H128.498V38.0501ZM128.678 49.1201H130.154V40.0121H128.678V49.1201ZM140.767 47.9681C140.245 47.9681 140.101 47.8421 140.101 47.2661V43.3601C140.101 41.0741 138.625 39.8321 136.357 39.8321C134.233 39.8321 132.667 40.8761 132.559 42.8021H133.981C134.053 41.7221 134.917 41.0561 136.303 41.0561C137.653 41.0561 138.607 41.7401 138.607 43.3781V43.8821H135.727C133.135 43.8821 132.235 45.0521 132.235 46.5101C132.235 48.2381 133.495 49.3001 135.529 49.3001C136.987 49.3001 138.175 48.7241 138.715 47.8781C138.805 48.8321 139.471 49.1201 140.191 49.1201H141.091V47.9681H140.767ZM138.607 45.3941C138.607 47.2481 137.275 48.0761 135.781 48.0761C134.611 48.0761 133.765 47.5541 133.765 46.4921C133.765 45.6281 134.305 44.9801 135.871 44.9801H138.607V45.3941ZM147.328 39.8321C145.924 39.8321 144.862 40.4081 144.34 41.4161L144.178 40.0121H142.882V49.1201H144.358V44.1881C144.358 42.4061 145.276 41.1821 146.986 41.1821C148.462 41.1821 149.452 42.0821 149.452 43.9721V49.1201H150.928V43.6661C150.928 41.3441 149.596 39.8321 147.328 39.8321ZM156.165 49.1201H157.533V47.7881H156.507C155.625 47.7881 155.409 47.3021 155.409 46.6361V41.3441H157.551V40.0121H155.409V37.6361H153.933V39.2021C153.933 39.7601 153.735 40.0121 153.159 40.0121H152.295V41.3441H153.933V46.8341C153.933 48.3821 154.815 49.1201 156.165 49.1201Z" fill="#87898F"/>
</svg>
