<svg width="232" height="62" viewBox="0 0 232 62" fill="none" xmlns="http://www.w3.org/2000/svg">
<path d="M227.5 0.120117H4C1.79086 0.120117 0 1.91098 0 4.12012V57.1201C0 59.3293 1.79086 61.1201 4 61.1201H227.5C229.709 61.1201 231.5 59.3293 231.5 57.1201V4.12012C231.5 1.91098 229.709 0.120117 227.5 0.120117Z" fill="white"/>
<path d="M91.5 0.120117H4C1.79086 0.120117 0 1.91098 0 4.12012V57.1201C0 59.3293 1.79086 61.1201 4 61.1201H91.5V0.120117Z" fill="#0450C8"/>
<path d="M45.7503 6.89795L44.7031 10.1208L46.3151 10.6449L45.7503 6.89795Z" fill="#FCBA01"/>
<path d="M45.7504 6.89795L46.7975 10.1208L45.1855 10.6449L45.7504 6.89795Z" fill="#FCBA01"/>
<path d="M48.9729 9.23975H45.584V10.9342L48.9729 9.23975Z" fill="#FCBA01"/>
<path d="M48.9723 9.23975L46.2307 11.2313L45.2344 9.86104L48.9723 9.23975Z" fill="#FCBA01"/>
<path d="M47.742 13.0292L46.6948 9.8064L45.084 10.3294L47.742 13.0292Z" fill="#FCBA01"/>
<path d="M47.7416 13.0284L45 11.0369L45.9963 9.66553L47.7416 13.0284Z" fill="#FCBA01"/>
<path d="M42.5273 9.23975H45.9162V10.9342L42.5273 9.23975Z" fill="#FCBA01"/>
<path d="M42.5273 9.23975L45.269 11.2313L46.2653 9.86104L42.5273 9.23975Z" fill="#FCBA01"/>
<path d="M43.7578 13.0295L44.805 9.80664L46.4158 10.3297L43.7578 13.0295Z" fill="#FCBA01"/>
<path d="M43.7578 13.0287L46.4994 11.0371L45.5031 9.66577L43.7578 13.0287Z" fill="#FCBA01"/>
<path d="M45.7503 47.5645L44.7031 50.7873L46.3151 51.3114L45.7503 47.5645Z" fill="#FCBA01"/>
<path d="M45.7504 47.5645L46.7975 50.7873L45.1855 51.3114L45.7504 47.5645Z" fill="#FCBA01"/>
<path d="M48.9729 49.9062H45.584V51.6007L48.9729 49.9062Z" fill="#FCBA01"/>
<path d="M48.9723 49.9062L46.2307 51.8978L45.2344 50.5275L48.9723 49.9062Z" fill="#FCBA01"/>
<path d="M47.742 53.6955L46.6948 50.4727L45.084 50.9957L47.742 53.6955Z" fill="#FCBA01"/>
<path d="M47.7416 53.6949L45 51.7034L45.9963 50.332L47.7416 53.6949Z" fill="#FCBA01"/>
<path d="M42.5273 49.9062H45.9162V51.6007L42.5273 49.9062Z" fill="#FCBA01"/>
<path d="M42.5273 49.9062L45.269 51.8978L46.2653 50.5275L42.5273 49.9062Z" fill="#FCBA01"/>
<path d="M43.7578 53.6955L44.805 50.4727L46.4158 50.9957L43.7578 53.6955Z" fill="#FCBA01"/>
<path d="M43.7578 53.6949L46.4994 51.7034L45.5031 50.332L43.7578 53.6949Z" fill="#FCBA01"/>
<path d="M25.4183 27.2312L24.3711 30.454L25.9831 30.9782L25.4183 27.2312Z" fill="#FCBA01"/>
<path d="M25.4183 27.2312L26.4655 30.454L24.8535 30.9782L25.4183 27.2312Z" fill="#FCBA01"/>
<path d="M28.6408 29.573H25.252V31.2674L28.6408 29.573Z" fill="#FCBA01"/>
<path d="M28.6403 29.573L25.8987 31.5645L24.9023 30.1943L28.6403 29.573Z" fill="#FCBA01"/>
<path d="M27.41 33.3625L26.3628 30.1396L24.752 30.6627L27.41 33.3625Z" fill="#FCBA01"/>
<path d="M27.4096 33.3617L24.668 31.3702L25.6643 29.9988L27.4096 33.3617Z" fill="#FCBA01"/>
<path d="M22.1953 29.573H25.5842V31.2674L22.1953 29.573Z" fill="#FCBA01"/>
<path d="M22.1953 29.573L24.9369 31.5645L25.9333 30.1943L22.1953 29.573Z" fill="#FCBA01"/>
<path d="M23.4258 33.3625L24.4729 30.1396L26.0838 30.6627L23.4258 33.3625Z" fill="#FCBA01"/>
<path d="M23.4258 33.3617L26.1674 31.3702L25.1711 29.9988L23.4258 33.3617Z" fill="#FCBA01"/>
<path d="M33.5918 15.753L36.3334 13.7604L35.3371 12.3901L33.5918 15.753Z" fill="#FCBA01"/>
<path d="M33.5918 15.754L34.639 12.53L36.2498 13.0542L33.5918 15.754Z" fill="#FCBA01"/>
<path d="M32.3613 11.9631L35.1029 13.9558L36.0993 12.5844L32.3613 11.9631Z" fill="#FCBA01"/>
<path d="M32.3613 11.9631H35.7502V13.6576L32.3613 11.9631Z" fill="#FCBA01"/>
<path d="M35.5843 9.62256L34.5371 12.8454L36.1491 13.3684L35.5843 9.62256Z" fill="#FCBA01"/>
<path d="M35.5843 9.62256L36.6315 12.8454L35.0195 13.3684L35.5843 9.62256Z" fill="#FCBA01"/>
<path d="M37.5756 15.753L34.834 13.7604L35.8303 12.3901L37.5756 15.753Z" fill="#FCBA01"/>
<path d="M37.576 15.754L36.5288 12.53L34.918 13.0542L37.576 15.754Z" fill="#FCBA01"/>
<path d="M38.8063 11.9631L36.0647 13.9558L35.0684 12.5844L38.8063 11.9631Z" fill="#FCBA01"/>
<path d="M38.8069 11.9631H35.418V13.6576L38.8069 11.9631Z" fill="#FCBA01"/>
<path d="M30.1338 23.1957L29.0866 19.9729L27.4746 20.4959L30.1338 23.1957Z" fill="#FCBA01"/>
<path d="M30.1342 23.1952L27.3926 21.2036L28.3889 19.8323L30.1342 23.1952Z" fill="#FCBA01"/>
<path d="M26.1484 23.1949L28.89 21.2034L27.8948 19.832L26.1484 23.1949Z" fill="#FCBA01"/>
<path d="M26.1484 23.1955L27.1956 19.9727L28.8053 20.4957L26.1484 23.1955Z" fill="#FCBA01"/>
<path d="M24.918 19.4062L27.6596 21.3978L28.6559 20.0275L24.918 19.4062Z" fill="#FCBA01"/>
<path d="M24.918 19.4062H28.3069V21.1007L24.918 19.4062Z" fill="#FCBA01"/>
<path d="M31.3649 19.4062L28.6233 21.3978L27.627 20.0275L31.3649 19.4062Z" fill="#FCBA01"/>
<path d="M31.3655 19.4062H27.9766V21.1007L31.3655 19.4062Z" fill="#FCBA01"/>
<path d="M28.141 17.0645L29.1882 20.2873L27.5762 20.8114L28.141 17.0645Z" fill="#FCBA01"/>
<path d="M28.142 17.0645L27.0938 20.2873L28.7057 20.8114L28.142 17.0645Z" fill="#FCBA01"/>
<path d="M31.3655 39.7397H27.9766V41.4342L31.3655 39.7397Z" fill="#FCBA01"/>
<path d="M31.3649 39.7397L28.6233 41.7313L27.627 40.361L31.3649 39.7397Z" fill="#FCBA01"/>
<path d="M30.1338 43.5292L29.0866 40.3064L27.4746 40.8294L30.1338 43.5292Z" fill="#FCBA01"/>
<path d="M30.1322 43.5284L27.3906 41.5369L28.387 40.1655L30.1322 43.5284Z" fill="#FCBA01"/>
<path d="M26.1484 43.5284L28.89 41.5369L27.8948 40.1655L26.1484 43.5284Z" fill="#FCBA01"/>
<path d="M26.1484 43.5292L27.1956 40.3064L28.8053 40.8294L26.1484 43.5292Z" fill="#FCBA01"/>
<path d="M28.141 37.3979L29.1882 40.6208L27.5762 41.1449L28.141 37.3979Z" fill="#FCBA01"/>
<path d="M28.142 37.3979L27.0938 40.6208L28.7057 41.1449L28.142 37.3979Z" fill="#FCBA01"/>
<path d="M24.918 39.7397H28.3069V41.4342L24.918 39.7397Z" fill="#FCBA01"/>
<path d="M24.918 39.7397L27.6596 41.7313L28.6559 40.361L24.918 39.7397Z" fill="#FCBA01"/>
<path d="M38.8069 47.1816H35.418V48.8761L38.8069 47.1816Z" fill="#FCBA01"/>
<path d="M38.8063 47.1816L36.0647 49.1743L35.0684 47.8029L38.8063 47.1816Z" fill="#FCBA01"/>
<path d="M37.576 50.9723L36.5288 47.7483L34.918 48.2724L37.576 50.9723Z" fill="#FCBA01"/>
<path d="M37.5756 50.9715L34.834 48.9789L35.8303 47.6086L37.5756 50.9715Z" fill="#FCBA01"/>
<path d="M33.5918 50.9715L36.3334 48.9789L35.3371 47.6086L33.5918 50.9715Z" fill="#FCBA01"/>
<path d="M33.5918 50.9723L34.639 47.7483L36.2498 48.2724L33.5918 50.9723Z" fill="#FCBA01"/>
<path d="M35.5843 44.8398L36.6315 48.0638L35.0195 48.5868L35.5843 44.8398Z" fill="#FCBA01"/>
<path d="M35.5843 44.8398L34.5371 48.0638L36.1491 48.5868L35.5843 44.8398Z" fill="#FCBA01"/>
<path d="M32.3613 47.1816H35.7502V48.8761L32.3613 47.1816Z" fill="#FCBA01"/>
<path d="M32.3613 47.1816L35.1029 49.1743L36.0993 47.8029L32.3613 47.1816Z" fill="#FCBA01"/>
<path d="M66.0824 27.2312L67.1296 30.454L65.5176 30.9782L66.0824 27.2312Z" fill="#FCBA01"/>
<path d="M66.0823 27.2312L65.0352 30.454L66.6471 30.9782L66.0823 27.2312Z" fill="#FCBA01"/>
<path d="M62.8594 29.573H66.2483V31.2674L62.8594 29.573Z" fill="#FCBA01"/>
<path d="M62.8594 29.573L65.601 31.5645L66.5973 30.1943L62.8594 29.573Z" fill="#FCBA01"/>
<path d="M64.0898 33.3625L65.137 30.1396L66.7479 30.6627L64.0898 33.3625Z" fill="#FCBA01"/>
<path d="M64.0898 33.3617L66.8315 31.3702L65.8351 29.9988L64.0898 33.3617Z" fill="#FCBA01"/>
<path d="M69.3049 29.573H65.916V31.2674L69.3049 29.573Z" fill="#FCBA01"/>
<path d="M69.3044 29.573L66.5627 31.5645L65.5664 30.1943L69.3044 29.573Z" fill="#FCBA01"/>
<path d="M68.074 33.3625L67.0269 30.1396L65.416 30.6627L68.074 33.3625Z" fill="#FCBA01"/>
<path d="M68.0736 33.3617L65.332 31.3702L66.3284 29.9988L68.0736 33.3617Z" fill="#FCBA01"/>
<path d="M57.9076 15.753L55.166 13.7604L56.1623 12.3901L57.9076 15.753Z" fill="#FCBA01"/>
<path d="M57.908 15.754L56.8608 12.53L55.25 13.0542L57.908 15.754Z" fill="#FCBA01"/>
<path d="M59.1383 11.9631L56.3967 13.9558L55.4004 12.5844L59.1383 11.9631Z" fill="#FCBA01"/>
<path d="M59.1389 11.9631H55.75V13.6576L59.1389 11.9631Z" fill="#FCBA01"/>
<path d="M55.9164 9.62256L56.9635 12.8454L55.3516 13.3684L55.9164 9.62256Z" fill="#FCBA01"/>
<path d="M55.9163 9.62256L54.8691 12.8454L56.4811 13.3684L55.9163 9.62256Z" fill="#FCBA01"/>
<path d="M53.9238 15.753L56.6654 13.7604L55.6691 12.3901L53.9238 15.753Z" fill="#FCBA01"/>
<path d="M53.9238 15.754L54.971 12.53L56.5818 13.0542L53.9238 15.754Z" fill="#FCBA01"/>
<path d="M52.6934 11.9631L55.435 13.9558L56.4313 12.5844L52.6934 11.9631Z" fill="#FCBA01"/>
<path d="M52.6934 11.9631H56.0822V13.6576L52.6934 11.9631Z" fill="#FCBA01"/>
<path d="M61.3672 23.1957L62.4144 19.9729L64.0263 20.4959L61.3672 23.1957Z" fill="#FCBA01"/>
<path d="M61.3672 23.1952L64.1088 21.2036L63.1125 19.8323L61.3672 23.1952Z" fill="#FCBA01"/>
<path d="M65.351 23.1952L62.6094 21.2036L63.6046 19.8323L65.351 23.1952Z" fill="#FCBA01"/>
<path d="M65.3522 23.1957L64.305 19.9729L62.6953 20.4959L65.3522 23.1957Z" fill="#FCBA01"/>
<path d="M66.5817 19.4067L63.8401 21.3983L62.8438 20.028L66.5817 19.4067Z" fill="#FCBA01"/>
<path d="M66.5822 19.4065H63.1934V21.1009L66.5822 19.4065Z" fill="#FCBA01"/>
<path d="M60.1348 19.4065L62.8764 21.398L63.8727 20.0278L60.1348 19.4065Z" fill="#FCBA01"/>
<path d="M60.1348 19.4065H63.5237V21.1009L60.1348 19.4065Z" fill="#FCBA01"/>
<path d="M63.3577 17.0647L62.3105 20.2875L63.9225 20.8117L63.3577 17.0647Z" fill="#FCBA01"/>
<path d="M63.3567 17.0647L64.4049 20.2875L62.793 20.8117L63.3567 17.0647Z" fill="#FCBA01"/>
<path d="M60.1348 39.7397H63.5237V41.4342L60.1348 39.7397Z" fill="#FCBA01"/>
<path d="M60.1348 39.7397L62.8764 41.7313L63.8727 40.361L60.1348 39.7397Z" fill="#FCBA01"/>
<path d="M61.3672 43.5292L62.4144 40.3064L64.0263 40.8294L61.3672 43.5292Z" fill="#FCBA01"/>
<path d="M61.3672 43.5284L64.1088 41.5369L63.1125 40.1655L61.3672 43.5284Z" fill="#FCBA01"/>
<path d="M65.351 43.5284L62.6094 41.5369L63.6046 40.1655L65.351 43.5284Z" fill="#FCBA01"/>
<path d="M65.3522 43.5292L64.305 40.3064L62.6953 40.8294L65.3522 43.5292Z" fill="#FCBA01"/>
<path d="M63.3577 37.3979L62.3105 40.6208L63.9225 41.1449L63.3577 37.3979Z" fill="#FCBA01"/>
<path d="M63.3567 37.3979L64.4049 40.6208L62.793 41.1449L63.3567 37.3979Z" fill="#FCBA01"/>
<path d="M66.5822 39.7397H63.1934V41.4342L66.5822 39.7397Z" fill="#FCBA01"/>
<path d="M66.5817 39.7397L63.8401 41.7313L62.8438 40.361L66.5817 39.7397Z" fill="#FCBA01"/>
<path d="M52.6934 47.1816H56.0822V48.8761L52.6934 47.1816Z" fill="#FCBA01"/>
<path d="M52.6934 47.1816L55.435 49.1743L56.4313 47.8029L52.6934 47.1816Z" fill="#FCBA01"/>
<path d="M53.9238 50.9723L54.971 47.7483L56.5818 48.2724L53.9238 50.9723Z" fill="#FCBA01"/>
<path d="M53.9238 50.9715L56.6654 48.9789L55.6691 47.6086L53.9238 50.9715Z" fill="#FCBA01"/>
<path d="M57.9076 50.9715L55.166 48.9789L56.1623 47.6086L57.9076 50.9715Z" fill="#FCBA01"/>
<path d="M57.908 50.9723L56.8608 47.7483L55.25 48.2724L57.908 50.9723Z" fill="#FCBA01"/>
<path d="M55.9163 44.8398L54.8691 48.0638L56.4811 48.5868L55.9163 44.8398Z" fill="#FCBA01"/>
<path d="M55.9164 44.8398L56.9635 48.0638L55.3516 48.5868L55.9164 44.8398Z" fill="#FCBA01"/>
<path d="M59.1389 47.1816H55.75V48.8761L59.1389 47.1816Z" fill="#FCBA01"/>
<path d="M59.1383 47.1816L56.3967 49.1743L55.4004 47.8029L59.1383 47.1816Z" fill="#FCBA01"/>
<path d="M112.78 25.8521V22.7201H117.532V20.5061H112.78V17.4281H119.044V15.1601H110.206V28.1201H119.26V25.8521H112.78ZM123.518 15.1601H120.908V23.0441C120.908 26.2661 122.888 28.3001 126.272 28.3001C129.62 28.3001 131.636 26.2661 131.636 23.0441V15.1601H129.026V23.2961C129.026 25.0961 127.892 26.0501 126.272 26.0501C124.652 26.0501 123.518 25.0961 123.518 23.2961V15.1601ZM133.506 21.6401V23.9261H139.248V21.6401H133.506ZM143.642 14.6021H141.122V28.1201H143.642V14.6021ZM145.439 23.4401C145.439 26.3561 147.473 28.3001 150.335 28.3001C153.197 28.3001 155.231 26.3561 155.231 23.4401C155.231 20.5421 153.197 18.5621 150.335 18.5621C147.473 18.5621 145.439 20.5421 145.439 23.4401ZM148.013 23.4221C148.013 21.7481 148.931 20.7041 150.335 20.7041C151.739 20.7041 152.657 21.7481 152.657 23.4221C152.657 25.0781 151.739 26.1581 150.335 26.1581C148.931 26.1581 148.013 25.0781 148.013 23.4221ZM163.226 22.3961H165.908C165.494 19.9481 163.712 18.5801 161.336 18.5801C158.492 18.5801 156.584 20.5241 156.584 23.4401C156.584 26.3741 158.492 28.3181 161.318 28.3181C163.676 28.3181 165.458 26.8781 165.908 24.4481H163.226C162.92 25.5461 162.254 26.1221 161.246 26.1221C160.058 26.1221 159.158 25.2581 159.158 23.4401C159.158 21.7841 160.004 20.7401 161.318 20.7401C162.254 20.7401 162.992 21.3161 163.226 22.3961ZM176.113 26.2841C175.807 26.2841 175.573 26.2121 175.573 25.7441V22.2521C175.573 19.4981 173.467 18.5801 171.433 18.5801C168.985 18.5801 167.257 19.8581 167.257 21.9641H169.543C169.579 21.1361 170.281 20.5781 171.325 20.5781C172.369 20.5781 173.035 21.1541 173.035 22.1981V22.6121H170.533C168.139 22.6121 167.023 23.7461 167.023 25.4201C167.023 27.2201 168.355 28.3001 170.425 28.3001C171.811 28.3001 172.891 27.8141 173.413 27.0221C173.611 27.8321 174.295 28.1201 175.123 28.1201H176.491V26.2841H176.113ZM173.035 24.5921C173.035 25.7081 172.315 26.3201 171.073 26.3201C170.245 26.3201 169.615 26.0321 169.615 25.2581C169.615 24.7541 169.903 24.2501 170.983 24.2501H173.035V24.5921ZM181.031 28.1201H182.939V25.9061H181.841C181.013 25.9061 180.797 25.6001 180.797 24.7901V20.9921H182.939V18.7601H180.797V16.2041H178.277V17.8421C178.277 18.4721 178.115 18.7601 177.539 18.7601H176.837V20.9921H178.277V25.3481C178.277 27.0401 179.177 28.1201 181.031 28.1201ZM193.488 23.2961C193.488 20.4341 191.634 18.5801 188.844 18.5801C186.054 18.5801 184.182 20.5241 184.182 23.4401C184.182 26.3741 186.054 28.3181 188.862 28.3181C191.22 28.3181 193.002 27.0041 193.416 25.0601H190.878C190.59 25.8701 189.852 26.2841 188.934 26.2841C187.728 26.2841 186.756 25.5101 186.72 24.1241H193.488V23.2961ZM188.844 20.5421C189.942 20.5421 190.86 21.1721 190.968 22.4681H186.738C186.846 21.1721 187.764 20.5421 188.844 20.5421ZM202.285 14.6021V19.9481C201.799 19.1381 200.683 18.5801 199.279 18.5801C196.723 18.5801 194.851 20.3261 194.851 23.4401C194.851 26.4281 196.597 28.3001 199.279 28.3001C200.719 28.3001 201.835 27.6521 202.303 26.8421L202.465 28.1201H204.805V14.6021H202.285ZM199.855 26.0501C198.451 26.0501 197.443 25.0781 197.443 23.4401C197.443 21.8381 198.451 20.8301 199.855 20.8301C201.205 20.8301 202.231 21.8201 202.231 23.4401C202.231 25.0781 201.205 26.0501 199.855 26.0501ZM109.468 45.1861C109.486 47.0761 111.304 48.3001 113.788 48.3001C115.984 48.3001 117.874 47.3101 117.874 45.2941C117.874 43.9261 117.1 43.0081 115.336 42.6481L113.572 42.2881C112.654 42.1261 112.204 41.8921 112.204 41.3521C112.204 40.7761 112.726 40.3801 113.644 40.3801C114.58 40.3801 115.264 40.8301 115.282 41.6221H117.748C117.748 39.7501 116.02 38.5801 113.644 38.5801C111.466 38.5801 109.702 39.7141 109.702 41.4601C109.702 42.7201 110.296 43.7641 112.168 44.1061L113.968 44.4481C114.976 44.6281 115.3 44.9521 115.3 45.5281C115.3 46.1581 114.742 46.5001 113.752 46.5001C112.744 46.5001 111.952 46.0321 111.934 45.1861H109.468ZM128.519 43.2961C128.519 40.4341 126.665 38.5801 123.875 38.5801C121.085 38.5801 119.213 40.5241 119.213 43.4401C119.213 46.3741 121.085 48.3181 123.893 48.3181C126.251 48.3181 128.033 47.0041 128.447 45.0601H125.909C125.621 45.8701 124.883 46.2841 123.965 46.2841C122.759 46.2841 121.787 45.5101 121.751 44.1241H128.519V43.2961ZM123.875 40.5421C124.973 40.5421 125.891 41.1721 125.999 42.4681H121.769C121.877 41.1721 122.795 40.5421 123.875 40.5421ZM134.992 38.7601C133.948 38.7601 133.282 39.2641 132.976 39.8401L132.706 38.7601H130.348V48.1201H132.886V43.3141C132.886 41.8921 133.354 41.0101 134.848 41.0101H136.27V38.7601H134.992ZM139.474 38.7601H136.864L140.464 48.1201H143.326L147.034 38.7601H144.334L141.94 45.5641L139.474 38.7601ZM156.697 43.2961C156.697 40.4341 154.843 38.5801 152.053 38.5801C149.263 38.5801 147.391 40.5241 147.391 43.4401C147.391 46.3741 149.263 48.3181 152.071 48.3181C154.429 48.3181 156.211 47.0041 156.625 45.0601H154.087C153.799 45.8701 153.061 46.2841 152.143 46.2841C150.937 46.2841 149.965 45.5101 149.929 44.1241H156.697V43.2961ZM152.053 40.5421C153.151 40.5421 154.069 41.1721 154.177 42.4681H149.947C150.055 41.1721 150.973 40.5421 152.053 40.5421ZM163.169 38.7601C162.125 38.7601 161.459 39.2641 161.153 39.8401L160.883 38.7601H158.525V48.1201H161.063V43.3141C161.063 41.8921 161.531 41.0101 163.025 41.0101H164.447V38.7601H163.169ZM165.173 45.1861C165.191 47.0761 167.009 48.3001 169.493 48.3001C171.689 48.3001 173.579 47.3101 173.579 45.2941C173.579 43.9261 172.805 43.0081 171.041 42.6481L169.277 42.2881C168.359 42.1261 167.909 41.8921 167.909 41.3521C167.909 40.7761 168.431 40.3801 169.349 40.3801C170.285 40.3801 170.969 40.8301 170.987 41.6221H173.453C173.453 39.7501 171.725 38.5801 169.349 38.5801C167.171 38.5801 165.407 39.7141 165.407 41.4601C165.407 42.7201 166.001 43.7641 167.873 44.1061L169.673 44.4481C170.681 44.6281 171.005 44.9521 171.005 45.5281C171.005 46.1581 170.447 46.5001 169.457 46.5001C168.449 46.5001 167.657 46.0321 167.639 45.1861H165.173Z" fill="#090C17"/>
</svg>
