<svg width="201" height="62" viewBox="0 0 201 62" fill="none" xmlns="http://www.w3.org/2000/svg">
<path d="M54.5 0.620117H196.5C198.433 0.620117 200 2.18712 200 4.12012V57.1201C200 59.0531 198.433 60.6201 196.5 60.6201H54.5C52.567 60.6201 51 59.0531 51 57.1201V4.12012C51 2.18712 52.567 0.620117 54.5 0.620117Z" fill="white" stroke="white"/>
<path d="M83.5 0.120117H4.5C2.29086 0.120117 0.5 1.91098 0.5 4.12012V57.1201C0.5 59.3293 2.29086 61.1201 4.5 61.1201H83.5V0.120117Z" fill="#3B61F4"/>
<path d="M105.166 38.1201H107.992L103.096 25.1601H100.576L95.662 38.1201H98.29L99.298 35.4021H104.176L105.166 38.1201ZM100.018 33.4401L101.764 28.7061L103.474 33.4401H100.018ZM110.049 28.7601H107.439L111.039 38.1201H113.901L117.609 28.7601H114.909L112.515 35.5641L110.049 28.7601ZM127.087 36.2841C126.781 36.2841 126.547 36.2121 126.547 35.7441V32.2521C126.547 29.4981 124.441 28.5801 122.407 28.5801C119.959 28.5801 118.231 29.8581 118.231 31.9641H120.517C120.553 31.1361 121.255 30.5781 122.299 30.5781C123.343 30.5781 124.009 31.1541 124.009 32.1981V32.6121H121.507C119.113 32.6121 117.997 33.7461 117.997 35.4201C117.997 37.2201 119.329 38.3001 121.399 38.3001C122.785 38.3001 123.865 37.8141 124.387 37.0221C124.585 37.8321 125.269 38.1201 126.097 38.1201H127.465V36.2841H127.087ZM124.009 34.5921C124.009 35.7081 123.289 36.3201 122.047 36.3201C121.219 36.3201 120.589 36.0321 120.589 35.2581C120.589 34.7541 120.877 34.2501 121.957 34.2501H124.009V34.5921ZM128.887 27.3201H131.443V24.8901H128.887V27.3201ZM128.923 38.1201H131.443V28.7601H128.923V38.1201ZM136.066 24.6021H133.546V38.1201H136.066V24.6021ZM146.845 36.2841C146.539 36.2841 146.305 36.2121 146.305 35.7441V32.2521C146.305 29.4981 144.199 28.5801 142.165 28.5801C139.717 28.5801 137.989 29.8581 137.989 31.9641H140.275C140.311 31.1361 141.013 30.5781 142.057 30.5781C143.101 30.5781 143.767 31.1541 143.767 32.1981V32.6121H141.265C138.871 32.6121 137.755 33.7461 137.755 35.4201C137.755 37.2201 139.087 38.3001 141.157 38.3001C142.543 38.3001 143.623 37.8141 144.145 37.0221C144.343 37.8321 145.027 38.1201 145.855 38.1201H147.223V36.2841H146.845ZM143.767 34.5921C143.767 35.7081 143.047 36.3201 141.805 36.3201C140.977 36.3201 140.347 36.0321 140.347 35.2581C140.347 34.7541 140.635 34.2501 141.715 34.2501H143.767V34.5921ZM154.207 28.5801C152.821 28.5801 151.705 29.1381 151.219 29.9661V24.6021H148.681V38.1201H151.039L151.183 36.8601C151.651 37.6701 152.785 38.3001 154.207 38.3001C156.781 38.3001 158.635 36.5541 158.635 33.4401C158.635 30.4521 156.889 28.5801 154.207 28.5801ZM153.649 36.0501C152.281 36.0501 151.255 35.0781 151.255 33.4401C151.255 31.8201 152.281 30.8121 153.649 30.8301C155.035 30.8301 156.043 31.8201 156.043 33.4401C156.043 35.0601 155.035 36.0501 153.649 36.0501ZM160.387 27.3201H162.943V24.8901H160.387V27.3201ZM160.423 38.1201H162.943V28.7601H160.423V38.1201ZM167.566 24.6021H165.046V38.1201H167.566V24.6021ZM169.633 27.3201H172.189V24.8901H169.633V27.3201ZM169.669 38.1201H172.189V28.7601H169.669V38.1201ZM177.586 38.1201H179.494V35.9061H178.396C177.568 35.9061 177.352 35.6001 177.352 34.7901V30.9921H179.494V28.7601H177.352V26.2041H174.832V27.8421C174.832 28.4721 174.67 28.7601 174.094 28.7601H173.392V30.9921H174.832V35.3481C174.832 37.0401 175.732 38.1201 177.586 38.1201ZM182.93 28.7601H180.23L183.776 37.9221C183.884 38.2101 183.938 38.4081 183.938 38.6241C183.938 39.2001 183.614 39.4881 183.002 39.4881H180.716V41.7201H183.002C184.424 41.7201 185.72 41.4321 186.368 39.6141L190.274 28.7601H187.7L185.378 35.8521L182.93 28.7601Z" fill="#090C17"/>
<path d="M19.6938 22.4703C16.061 22.4703 13.3126 24.7885 13.3126 28.6364C13.3126 32.5081 16.1566 34.6113 19.2397 34.6113C20.7693 34.6113 22.036 34.0855 22.8246 33.2012V33.5119C22.8246 35.6868 21.7492 37.3119 19.5743 37.3119C18.2837 37.3119 17.0648 36.7383 16.7063 35.4717H13.5038C13.934 38.244 16.061 40.1321 19.5265 40.1321C24.2347 40.1321 26.2901 36.6666 26.2901 31.2175C26.2901 24.6929 23.0397 22.4703 19.6938 22.4703ZM19.646 31.8867C17.7579 31.8867 16.5151 30.5483 16.5151 28.6364C16.5151 26.7244 17.7579 25.3382 19.6221 25.3382C21.5102 25.3382 22.8007 26.7244 22.7768 28.6603C22.7768 30.5961 21.4863 31.8867 19.646 31.8867ZM34.4677 22.4703C30.8349 22.4703 28.0865 24.7885 28.0865 28.6364C28.0865 32.5081 30.9305 34.6113 34.0136 34.6113C35.5432 34.6113 36.8098 34.0855 37.5985 33.2012V33.5119C37.5985 35.6868 36.5231 37.3119 34.3482 37.3119C33.0576 37.3119 31.8387 36.7383 31.4802 35.4717H28.2777C28.7079 38.244 30.8349 40.1321 34.3004 40.1321C39.0086 40.1321 41.064 36.6666 41.064 31.2175C41.064 24.6929 37.8136 22.4703 34.4677 22.4703ZM34.4199 31.8867C32.5318 31.8867 31.289 30.5483 31.289 28.6364C31.289 26.7244 32.5318 25.3382 34.396 25.3382C36.2841 25.3382 37.5746 26.7244 37.5507 28.6603C37.5507 30.5961 36.2602 31.8867 34.4199 31.8867ZM42.6104 39.917H46.6016V36.0214H42.6104V39.917ZM54.6563 22.4703C51.0236 22.4703 48.2751 24.7885 48.2751 28.6364C48.2751 32.5081 51.1192 34.6113 54.2022 34.6113C55.7318 34.6113 56.9985 34.0855 57.7872 33.2012V33.5119C57.7872 35.6868 56.7117 37.3119 54.5368 37.3119C53.2463 37.3119 52.0274 36.7383 51.6689 35.4717H48.4663C48.8965 38.244 51.0236 40.1321 54.489 40.1321C59.1973 40.1321 61.2526 36.6666 61.2526 31.2175C61.2526 24.6929 58.0023 22.4703 54.6563 22.4703ZM54.6085 31.8867C52.7205 31.8867 51.4777 30.5483 51.4777 28.6364C51.4777 26.7244 52.7205 25.3382 54.5846 25.3382C56.4727 25.3382 57.7633 26.7244 57.7394 28.6603C57.7394 30.5961 56.4488 31.8867 54.6085 31.8867Z" fill="white"/>
<path d="M67.1844 27.7608C68.6674 27.7608 69.6419 26.6027 69.6419 24.908C69.6419 23.1991 68.6674 22.0551 67.1844 22.0551C65.7015 22.0551 64.727 23.2132 64.727 24.908C64.727 26.6169 65.6874 27.7608 67.1844 27.7608ZM66.7184 32.3508H68.4414L74.7827 22.1822H73.0596L66.7184 32.3508ZM67.1844 26.3344C66.4924 26.3344 66.3229 25.6141 66.3229 24.908C66.3229 24.1877 66.5065 23.4815 67.1844 23.4815C67.8624 23.4815 68.0318 24.2018 68.0318 24.908C68.0318 25.6282 67.8624 26.3344 67.1844 26.3344ZM74.3307 32.4921C75.8136 32.4921 76.7881 31.334 76.7881 29.6392C76.7881 27.9303 75.7995 26.7863 74.3307 26.7863C72.8337 26.7863 71.8733 27.9444 71.8733 29.6392C71.8733 31.3622 72.8337 32.4921 74.3307 32.4921ZM74.3307 31.0656C73.6387 31.0656 73.4692 30.3736 73.4692 29.6392C73.4692 28.9189 73.6387 28.2269 74.3307 28.2269C75.0228 28.2269 75.1781 28.933 75.1781 29.6392C75.1781 30.3877 75.0086 31.0656 74.3307 31.0656Z" fill="white"/>
</svg>
