<svg width="15" height="15" viewBox="0 0 15 15" fill="none" xmlns="http://www.w3.org/2000/svg">
<path d="M12.5477 12.4289H10.4527V9.1803C10.4527 8.40562 10.4387 7.40838 9.36301 7.40838C8.27183 7.40838 8.10487 8.25242 8.10487 9.1239V12.4287H6.0098V5.74819H8.02106V6.66115H8.04922C8.2505 6.32039 8.54136 6.04007 8.89081 5.85004C9.24026 5.66 9.63523 5.56737 10.0336 5.58202C12.1571 5.58202 12.5486 6.96497 12.5486 8.76411L12.5477 12.4289ZM3.64587 4.83501C3.40541 4.83505 3.17033 4.76449 2.97037 4.63225C2.77041 4.5 2.61455 4.31202 2.52249 4.09207C2.43043 3.87211 2.40631 3.63007 2.45318 3.39655C2.50005 3.16302 2.6158 2.9485 2.78581 2.78011C2.95581 2.61172 3.17242 2.49703 3.40825 2.45054C3.64408 2.40405 3.88854 2.42785 4.11071 2.51892C4.33289 2.60999 4.52279 2.76426 4.65642 2.9622C4.79005 3.16014 4.8614 3.39288 4.86145 3.63097C4.86147 3.78906 4.83005 3.9456 4.76898 4.09167C4.70791 4.23773 4.61838 4.37046 4.50551 4.48226C4.39263 4.59407 4.25861 4.68276 4.11111 4.74329C3.96362 4.80381 3.80553 4.83498 3.64587 4.83501V4.83501ZM4.6934 12.4289H2.59615V5.74819H4.6934V12.4289ZM13.5922 0.500954H1.54339C1.26991 0.497898 1.00639 0.60247 0.810744 0.791691C0.615099 0.980912 0.503338 1.2393 0.5 1.51008V13.4897C0.503223 13.7606 0.614919 14.0192 0.810558 14.2086C1.0062 14.398 1.26978 14.5028 1.54339 14.4999H13.5922C13.8664 14.5033 14.1307 14.3988 14.3271 14.2094C14.5235 14.02 14.6359 13.7612 14.6397 13.4897V1.50921C14.6358 1.2379 14.5233 0.979217 14.3269 0.790001C14.1305 0.600784 13.8662 0.496511 13.5922 0.500089" fill="white"/>
</svg>
