<svg width="202" height="51" viewBox="0 0 202 51" fill="none" xmlns="http://www.w3.org/2000/svg">
<path d="M39.8438 0H11.1562C4.99482 0 0 4.99482 0 11.1562V39.8438C0 46.0052 4.99482 51 11.1562 51H39.8438C46.0052 51 51 46.0052 51 39.8438V11.1562C51 4.99482 46.0052 0 39.8438 0Z" fill="white"/>
<path d="M39.8437 38.25H30.2812V22.3125H20.7187V38.25H11.1562V17.5312C11.1562 14.8906 13.2969 12.75 15.9375 12.75H35.0625C37.703 12.75 39.8437 14.8906 39.8437 17.5312V38.25Z" fill="#0F183B"/>
<path d="M75.4501 18.4108C76.8867 18.4108 78.1684 18.7092 79.2955 19.3059C80.4446 19.9026 81.3396 20.7866 81.9806 21.9579C82.6216 23.1292 82.942 24.5436 82.942 26.2011V36.9748H79.196V26.7646C79.196 25.1292 78.7871 23.8806 77.9695 23.0187C77.1519 22.1347 76.0356 21.6927 74.6213 21.6927C73.207 21.6927 72.0799 22.1347 71.24 23.0187C70.4224 23.8806 70.0135 25.1292 70.0135 26.7646V36.9748H66.2344V18.7092H70.0135V20.7976C70.6322 20.0463 71.4169 19.4606 72.3671 19.0407C73.3396 18.6208 74.3673 18.4108 75.4501 18.4108ZM103.641 18.7092V36.9748H99.8622V34.8201C99.2655 35.5714 98.481 36.1681 97.5085 36.6102C96.5583 37.03 95.5415 37.24 94.4587 37.24C93.0221 37.24 91.7293 36.9417 90.5802 36.345C89.4531 35.7483 88.558 34.8644 87.895 33.693C87.254 32.5216 86.9337 31.1073 86.9337 29.4498V18.7092H90.6796V28.8862C90.6796 30.5217 91.0886 31.7814 91.9062 32.6653C92.7238 33.5272 93.84 33.9582 95.2543 33.9582C96.6686 33.9582 97.7849 33.5272 98.6025 32.6653C99.4424 31.7814 99.8622 30.5217 99.8622 28.8862V18.7092H103.641ZM130.076 18.4108C131.512 18.4108 132.794 18.7092 133.921 19.3059C135.07 19.9026 135.965 20.7866 136.606 21.9579C137.269 23.1292 137.601 24.5436 137.601 26.2011V36.9748H133.855V26.7646C133.855 25.1292 133.446 23.8806 132.628 23.0187C131.81 22.1347 130.694 21.6927 129.28 21.6927C127.866 21.6927 126.739 22.1347 125.899 23.0187C125.081 23.8806 124.672 25.1292 124.672 26.7646V36.9748H120.926V26.7646C120.926 25.1292 120.517 23.8806 119.7 23.0187C118.882 22.1347 117.766 21.6927 116.351 21.6927C114.937 21.6927 113.81 22.1347 112.97 23.0187C112.153 23.8806 111.744 25.1292 111.744 26.7646V36.9748H107.964V18.7092H111.744V20.7976C112.362 20.0463 113.147 19.4606 114.097 19.0407C115.047 18.6208 116.064 18.4108 117.147 18.4108C118.606 18.4108 119.91 18.7203 121.059 19.339C122.208 19.9578 123.092 20.8529 123.711 22.0242C124.263 20.9192 125.125 20.0463 126.296 19.4053C127.468 18.7423 128.728 18.4108 130.076 18.4108ZM158.487 27.3945C158.487 28.0796 158.443 28.6984 158.355 29.2509H144.399C144.509 30.7095 145.05 31.8809 146.023 32.7648C146.995 33.6487 148.189 34.0908 149.603 34.0908C151.636 34.0908 153.073 33.2401 153.913 31.5382H157.99C157.437 33.2177 156.432 34.5992 154.973 35.682C153.537 36.7428 151.747 37.2732 149.603 37.2732C147.857 37.2732 146.288 36.8866 144.896 36.1129C143.526 35.3173 142.443 34.2122 141.647 32.7979C140.874 31.3614 140.487 29.7039 140.487 27.8254C140.487 25.947 140.862 24.3005 141.614 22.8861C142.387 21.4496 143.459 20.3446 144.83 19.5711C146.222 18.7976 147.813 18.4108 149.603 18.4108C151.327 18.4108 152.863 18.7866 154.211 19.5379C155.559 20.2893 156.609 21.3501 157.36 22.7203C158.112 24.0684 158.487 25.6265 158.487 27.3945ZM154.542 26.2011C154.52 24.8088 154.023 23.6928 153.051 22.8529C152.078 22.0131 150.874 21.5932 149.437 21.5932C148.133 21.5932 147.017 22.0131 146.089 22.8529C145.161 23.6706 144.608 24.7867 144.432 26.2011H154.542ZM165.322 21.3612C165.875 20.433 166.604 19.7148 167.51 19.2064C168.438 18.676 169.532 18.4108 170.792 18.4108V22.3225H169.831C168.35 22.3225 167.223 22.6983 166.449 23.4496C165.698 24.201 165.322 25.5049 165.322 27.3613V36.9748H161.543V18.7092H165.322V21.3612ZM172.343 27.7591C172.343 25.9248 172.719 24.3005 173.47 22.8861C174.244 21.4717 175.283 20.3778 176.586 19.6042C177.912 18.8086 179.371 18.4108 180.962 18.4108C182.399 18.4108 183.647 18.6981 184.708 19.2727C185.791 19.8252 186.653 20.5214 187.294 21.3612V18.7092H191.106V36.9748H187.294V34.2565C186.653 35.1184 185.78 35.8366 184.675 36.4113C183.57 36.986 182.31 37.2732 180.896 37.2732C179.327 37.2732 177.89 36.8754 176.586 36.0798C175.283 35.2622 174.244 34.1351 173.47 32.6985C172.719 31.2399 172.343 29.5935 172.343 27.7591ZM187.294 27.8254C187.294 26.5657 187.029 25.4718 186.498 24.5436C185.99 23.6154 185.316 22.9082 184.476 22.422C183.636 21.9358 182.73 21.6927 181.758 21.6927C180.785 21.6927 179.879 21.9358 179.039 22.422C178.2 22.8861 177.514 23.5822 176.984 24.5104C176.476 25.4166 176.222 26.4994 176.222 27.7591C176.222 29.0188 176.476 30.1239 176.984 31.0741C177.514 32.0243 178.2 32.7536 179.039 33.262C179.901 33.7481 180.807 33.9913 181.758 33.9913C182.73 33.9913 183.636 33.7481 184.476 33.262C185.316 32.776 185.99 32.0686 186.498 31.1404C187.029 30.1902 187.294 29.0851 187.294 27.8254ZM199.186 12.4438V36.9748H195.407V12.4438H199.186Z" fill="white"/>
</svg>
