<svg width="166" height="42" viewBox="0 0 166 42" fill="none" xmlns="http://www.w3.org/2000/svg">
<g clip-path="url(#clip0_283_233597)">
<path d="M32.7804 0H9.17852C4.10936 0 0 4.10936 0 9.17852V32.7804C0 37.8496 4.10936 41.9589 9.17852 41.9589H32.7804C37.8496 41.9589 41.9589 37.8496 41.9589 32.7804V9.17852C41.9589 4.10936 37.8496 0 32.7804 0Z" fill="white"/>
<path d="M32.7816 31.4687H24.9143V18.3566H17.047V31.4687H9.17969V14.4229C9.17969 12.2504 10.9408 10.4893 13.1133 10.4893H28.8479C31.0204 10.4893 32.7816 12.2504 32.7816 14.4229V31.4687Z" fill="#3B61F4"/>
<path d="M62.0781 15.1475C63.26 15.1475 64.3145 15.3929 65.2418 15.8839C66.1872 16.3748 66.9235 17.1021 67.4509 18.0657C67.9783 19.0294 68.2418 20.193 68.2418 21.5567V30.4205H65.16V22.0203C65.16 20.6749 64.8235 19.6476 64.1508 18.9385C63.4782 18.2112 62.5598 17.8475 61.3962 17.8475C60.2327 17.8475 59.3054 18.2112 58.6144 18.9385C57.9417 19.6476 57.6053 20.6749 57.6053 22.0203V30.4205H54.4961V15.3929H57.6053V17.1112C58.1143 16.493 58.7599 16.0111 59.5417 15.6657C60.3418 15.3202 61.1872 15.1475 62.0781 15.1475ZM85.2717 15.3929V30.4205H82.1625V28.6478C81.6716 29.2659 81.0262 29.7568 80.2261 30.1205C79.4443 30.4659 78.6078 30.6387 77.7169 30.6387C76.535 30.6387 75.4714 30.3932 74.526 29.9023C73.5987 29.4114 72.8623 28.6842 72.3168 27.7205C71.7895 26.7567 71.5259 25.5931 71.5259 24.2295V15.3929H74.6078V23.7658C74.6078 25.1113 74.9443 26.1477 75.6169 26.875C76.2896 27.5841 77.2079 27.9387 78.3715 27.9387C79.5351 27.9387 80.4535 27.5841 81.1261 26.875C81.8171 26.1477 82.1625 25.1113 82.1625 23.7658V15.3929H85.2717ZM107.02 15.1475C108.202 15.1475 109.256 15.3929 110.183 15.8839C111.129 16.3748 111.865 17.1021 112.393 18.0657C112.938 19.0294 113.211 20.193 113.211 21.5567V30.4205H110.129V22.0203C110.129 20.6749 109.792 19.6476 109.12 18.9385C108.447 18.2112 107.529 17.8475 106.365 17.8475C105.202 17.8475 104.274 18.2112 103.583 18.9385C102.911 19.6476 102.574 20.6749 102.574 22.0203V30.4205H99.4923V22.0203C99.4923 20.6749 99.1559 19.6476 98.4832 18.9385C97.8106 18.2112 96.8922 17.8475 95.7286 17.8475C94.565 17.8475 93.6377 18.2112 92.9467 18.9385C92.2741 19.6476 91.9376 20.6749 91.9376 22.0203V30.4205H88.8285V15.3929H91.9376V17.1112C92.4466 16.493 93.0923 16.0111 93.874 15.6657C94.6558 15.3202 95.4923 15.1475 96.3832 15.1475C97.5832 15.1475 98.656 15.402 99.6014 15.9111C100.547 16.4202 101.274 17.1566 101.783 18.1203C102.238 17.2111 102.947 16.493 103.911 15.9657C104.874 15.4202 105.911 15.1475 107.02 15.1475ZM130.395 22.5385C130.395 23.1022 130.358 23.6113 130.286 24.0658H118.804C118.894 25.2659 119.34 26.2296 120.14 26.9568C120.94 27.684 121.922 28.0477 123.086 28.0477C124.758 28.0477 125.94 27.3478 126.631 25.9477H129.986C129.531 27.3295 128.704 28.466 127.504 29.3569C126.322 30.2296 124.849 30.666 123.086 30.666C121.649 30.666 120.358 30.3479 119.213 29.7114C118.085 29.0569 117.195 28.1477 116.54 26.9841C115.904 25.8022 115.585 24.4386 115.585 22.8931C115.585 21.3476 115.894 19.993 116.513 18.8294C117.149 17.6475 118.031 16.7384 119.158 16.102C120.304 15.4657 121.613 15.1475 123.086 15.1475C124.504 15.1475 125.767 15.4566 126.877 16.0748C127.986 16.693 128.849 17.5657 129.468 18.693C130.086 19.8021 130.395 21.084 130.395 22.5385ZM127.149 21.5567C127.131 20.4112 126.722 19.493 125.922 18.8021C125.122 18.1112 124.131 17.7657 122.949 17.7657C121.876 17.7657 120.958 18.1112 120.195 18.8021C119.431 19.4748 118.976 20.393 118.831 21.5567H127.149ZM136.018 17.5748C136.473 16.8111 137.073 16.2202 137.818 15.802C138.582 15.3657 139.482 15.1475 140.518 15.1475V18.3657H139.727C138.509 18.3657 137.582 18.6748 136.945 19.293C136.327 19.9112 136.018 20.984 136.018 22.5113V30.4205H132.909V15.3929H136.018V17.5748ZM141.794 22.8385C141.794 21.3294 142.103 19.993 142.722 18.8294C143.358 17.6657 144.213 16.7657 145.285 16.1293C146.376 15.4748 147.576 15.1475 148.885 15.1475C150.067 15.1475 151.094 15.3838 151.967 15.8566C152.858 16.3111 153.567 16.8839 154.095 17.5748V15.3929H157.231V30.4205H154.095V28.1841C153.567 28.8932 152.849 29.4841 151.94 29.9569C151.031 30.4297 149.995 30.666 148.831 30.666C147.54 30.666 146.358 30.3387 145.285 29.6841C144.213 29.0115 143.358 28.0842 142.722 26.9023C142.103 25.7022 141.794 24.3477 141.794 22.8385ZM154.095 22.8931C154.095 21.8567 153.876 20.9567 153.44 20.193C153.022 19.4294 152.467 18.8475 151.776 18.4475C151.086 18.0475 150.34 17.8475 149.54 17.8475C148.74 17.8475 147.994 18.0475 147.303 18.4475C146.613 18.8294 146.049 19.4021 145.613 20.1658C145.195 20.9112 144.985 21.8022 144.985 22.8385C144.985 23.8749 145.195 24.784 145.613 25.5659C146.049 26.3476 146.613 26.9476 147.303 27.3659C148.013 27.7658 148.758 27.9659 149.54 27.9659C150.34 27.9659 151.086 27.7658 151.776 27.3659C152.467 26.966 153.022 26.3841 153.44 25.6204C153.876 24.8386 154.095 23.9295 154.095 22.8931ZM163.879 10.2383V30.4205H160.769V10.2383H163.879Z" fill="white"/>
</g>
<defs>
<clipPath id="clip0_283_233597">
<rect width="166" height="41.9589" fill="white"/>
</clipPath>
</defs>
</svg>
