<svg width="101" height="25" viewBox="0 0 101 25" fill="none" xmlns="http://www.w3.org/2000/svg">
<path fill-rule="evenodd" clip-rule="evenodd" d="M5.97942 16.8084V19.2164L5.95013 19.6505C5.95013 22.1113 6.06614 22.244 6.76102 22.4973C7.07975 22.6058 6.79261 22.642 7.54549 22.7149V23.5643C5.98172 23.4925 5.44591 23.4925 3.76671 23.4925C2.0008 23.4925 1.70849 23.4925 0 23.5643V22.7149C1.21575 22.642 1.30534 22.4973 1.53735 22.0631C1.71079 21.7007 1.76879 21.3877 1.76879 19.6505V19.2164V4.77722L1.74007 4.23453L1.71079 3.22149C1.68207 2.13553 1.27663 1.66519 0.292309 1.48429C0.205593 1.48429 0.405443 1.44811 0.26015 1.41193V0.907137C2.54062 0.908286 6.0001 0.897949 6.0001 0.897949L5.97885 9.93197V16.8084H5.97942Z" fill="black"/>
<path fill-rule="evenodd" clip-rule="evenodd" d="M15.2065 13.6051C15.3816 11.5939 14.5558 8.7363 13.3521 8.7363C11.9572 8.7363 11.1635 10.601 11.0269 13.6051H15.2065ZM13.2424 23.7917C9.30286 23.7917 6.56641 20.4987 6.56641 15.6484C6.56641 10.7986 9.35684 7.25179 13.1603 7.25179C16.471 7.25179 18.7418 10.0026 18.7418 14.0197C18.7418 14.7071 18.6912 15.1539 18.7039 15.1976H11.0424C11.0424 16.8262 10.9832 16.2898 11.1475 17.3758C11.5581 19.7637 12.8169 21.1758 14.6224 21.1758C15.9082 21.1758 17.2435 21.0133 18.612 19.0952L18.8359 19.6919C17.6592 22.0441 15.5401 23.7917 13.2424 23.7917ZM28.4178 12.1573C27.4335 9.80504 26.104 8.51923 24.5696 8.51923C23.4112 8.51923 22.2271 9.27958 22.2271 10.365C22.2271 11.3062 22.6899 12.2302 23.7328 12.6282L25.5568 13.3518C28.365 14.4378 29.5813 16.0664 29.5813 18.7805C29.5813 21.8931 27.2968 23.8468 24.1986 23.8468C23.0477 23.8468 21.1928 23.0704 20.2917 23.0267C19.8593 23.0066 19.8622 23.7021 19.8622 23.7021H19.0708C19.0708 21.4589 19.022 21.0506 19.0341 18.4911H19.6819C20.6955 21.1684 21.9692 22.7804 23.6777 22.7442C25.0382 22.7442 26.3096 21.9121 26.3096 20.6446C26.3096 19.523 25.7595 18.5628 24.1383 17.9484L23.0517 17.4281C21.0687 16.1606 19.173 15.3474 19.2155 12.302C19.2592 9.1808 21.1549 7.71638 23.8701 7.33678C24.6804 7.22365 27.1222 7.52227 28.048 8.04774C28.2094 8.04774 28.3885 7.37985 28.3885 7.37985H28.7992C28.7704 8.42964 28.7704 9.18941 28.7704 9.69593C28.7704 10.2386 28.7704 11.0713 28.7992 12.1567H28.4178V12.1573ZM44.8096 11.9678L44.8394 17.6945H44.0119C43.5479 14.6549 42.2351 12.673 40.2664 12.673H39.5135V17.3706C39.4842 21.6777 40.0637 22.5461 42.9299 22.5461C45.3413 22.5461 48.6527 19.4415 49.1471 16.4575L49.9747 16.5C49.8592 18.4876 48.9685 22.2308 48.8536 23.5218L47.9417 23.4862H37.2262C34.4466 23.4862 34.2991 23.4862 32.5619 23.5218L32.648 22.5771C34.7757 22.542 34.9543 20.7612 34.9681 19.4702L34.9968 17.1168V5.78565L34.9681 5.20677C34.9394 2.45596 34.8205 1.87708 32.5624 1.80472V0.34375C34.2996 0.41611 34.2445 0.416109 37.1107 0.416109H44.2336L46.6364 0.379932L48.6291 0.386824C48.6584 3.13763 48.6888 8.042 48.6888 8.042L47.8745 8.06382C47.2175 4.18742 46.1281 2.11771 42.0329 2.11771C40.5851 2.11771 39.6881 2.18949 39.5721 2.37096C39.5141 2.4795 39.4854 2.00744 39.4854 3.30992V11.3533H40.209C42.2649 11.3889 43.9832 9.03666 44.0699 6.39496H44.8831L44.8096 11.9678Z" fill="black"/>
<path fill-rule="evenodd" clip-rule="evenodd" d="M56.3243 24.1925C52.6644 24.1925 49.5938 21.9494 49.5938 15.9573C49.5938 10.9634 52.7201 7.59521 57.0049 7.59521C59.7551 7.59521 61.7157 9.07916 61.753 11.1058C61.7967 13.4477 60.7279 13.4477 59.8889 13.4477C58.9626 13.4477 57.9002 13.369 57.8473 11.0449C57.8215 9.90613 57.4873 8.89597 56.3984 8.9063C54.6859 8.92238 53.9083 11.1793 53.9083 15.2693C53.9083 19.2681 56.0441 21.6479 57.4402 21.8196C58.7616 21.9833 60.0572 21.8006 61.3884 19.8464L62.0993 20.5148C60.8256 22.8677 58.757 24.1925 56.3243 24.1925Z" fill="black"/>
<path fill-rule="evenodd" clip-rule="evenodd" d="M71.1446 7.37997C73.7794 7.37997 75.1691 9.11717 75.1691 12.3383V16.464C75.1691 17.2961 75.1691 18.6738 75.1398 19.2165V19.6507C75.1398 22.51 75.2553 22.7633 76.645 22.9798L76.6485 23.0165V23.5213C75.1129 23.4484 74.8504 23.4484 73.4899 23.4484C72.099 23.4484 71.72 23.4484 69.8392 23.5213V23.0165L69.8415 22.9798C71.2313 22.7633 71.3467 22.51 71.3467 19.6507V19.2165C71.3186 18.6738 71.3186 17.2961 71.3186 16.464V13.8584C71.3186 11.0715 70.7385 9.60474 69.3488 9.60474C67.4956 9.60474 66.6565 11.3058 66.6565 15.1787V19.6507C66.6565 22.51 66.7427 22.7633 68.1325 22.9798L68.164 23.0165V23.5213C66.6014 23.4484 66.3671 23.4484 64.8315 23.4484C63.297 23.4484 62.9765 23.4484 61.2681 23.5213V23.0165L61.2996 22.9798C62.6894 22.7633 62.7767 22.51 62.7767 19.6868V19.2171V5.49805C62.7767 1.55331 62.6894 2.08222 61.2704 1.82896C61.2129 1.82896 61.0682 1.79278 60.9453 1.7566V0.864173C63.1592 0.865321 66.6342 0.85498 66.6342 0.85498L66.6565 10.3117C67.6696 8.35683 69.1466 7.37997 71.1446 7.37997Z" fill="black"/>
<path fill-rule="evenodd" clip-rule="evenodd" d="M83.0285 8.48308C81.088 8.48308 80.1617 10.999 80.1617 15.6323C80.1617 20.2645 81.0587 22.8166 82.9705 22.8166C84.9684 22.8166 85.808 20.4454 85.808 15.777C85.808 10.999 84.9385 8.48308 83.0285 8.48308ZM82.9699 23.8468C78.916 23.8468 75.8184 20.3001 75.8184 15.6679C75.8184 11.0358 78.9746 7.37988 82.9992 7.37988C86.9945 7.37988 90.1214 10.999 90.1214 15.595C90.122 20.3001 87.0237 23.8468 82.9699 23.8468ZM99.7659 11.9851C98.781 9.63222 97.4521 8.3464 95.9177 8.3464C94.7588 8.3464 93.5757 9.10675 93.5757 10.1921C93.5757 11.1334 94.038 12.0568 95.0809 12.4548L96.9048 13.1784C99.7137 14.2644 100.929 15.893 100.929 18.6071C100.929 21.7197 98.6443 23.6746 95.5467 23.6746C94.3958 23.6746 92.542 22.897 91.6398 22.8545C91.208 22.8332 91.2103 23.5287 91.2103 23.5287H90.4195C90.4195 21.2855 90.3701 20.8784 90.3827 18.3177H91.0299C92.0441 20.9961 93.3179 22.6081 95.0264 22.5708C96.3868 22.5708 97.6577 21.7387 97.6577 20.4724C97.6577 19.3508 97.1081 18.3906 95.4864 17.775L94.3993 17.2547C92.4174 15.9884 90.5205 15.174 90.563 12.1298C90.6067 9.00797 92.5024 7.54355 95.2176 7.16395C96.0285 7.05082 98.4703 7.34945 99.3955 7.87491C99.5569 7.87491 99.7366 7.20703 99.7366 7.20703H100.147C100.118 8.25681 100.118 9.01659 100.118 9.5231C100.118 10.0664 100.118 10.8985 100.147 11.9845H99.7659V11.9851Z" fill="black"/>
</svg>
