<svg width="76" height="26" viewBox="0 0 76 26" fill="none" xmlns="http://www.w3.org/2000/svg">
<path opacity="0.8" d="M8.51842 25.6901C12.616 25.6901 16.0371 23.8758 16.0371 19.7943C16.0371 16.4246 13.1009 15.0641 8.90592 14.2548L8.80958 14.2345C8.55053 14.1831 8.26687 14.1328 7.97251 14.0771L7.86225 14.0557C6.384 13.7688 4.71093 13.3278 4.71093 11.9545C4.71093 10.6261 6.16349 10.108 7.55076 10.108C9.48608 10.108 10.9708 10.9825 11.4225 12.8932L15.2942 11.825C14.2944 8.32575 11.2287 6.6409 7.58287 6.6409C3.87172 6.6409 0.548056 8.22834 0.548056 12.1161C0.548056 15.9632 3.66406 16.8281 6.88068 17.4886L7.08406 17.5292L7.38913 17.5913C9.67983 18.0773 11.7136 18.726 11.7136 20.1175C11.7136 21.705 10.0031 22.2241 8.48631 22.2241C6.35617 22.2241 4.71093 21.219 4.09758 19.1788L0 20.2802C1.03296 24.1348 4.84045 25.6901 8.51842 25.6901ZM47.4625 4.98817C48.9151 4.98817 50.1407 3.98518 50.1407 2.49408C50.1407 1.13465 48.9793 0 47.4625 0C45.8815 0 44.7843 1.10146 44.7843 2.49408C44.7843 4.0173 45.9457 4.98817 47.4625 4.98817ZM36.465 25.6901C37.6917 25.6901 39.9824 25.2363 41.0464 22.0614C41.5634 20.4419 41.693 19.0161 41.7893 16.4246L41.8139 15.9589L41.8235 15.8048C41.9638 13.4392 42.2485 11.2737 43.0802 11.2737V7.02946C41.7893 7.02946 39.4344 7.51544 38.3372 10.7877C37.8202 12.4405 37.6917 14.4807 37.5622 16.4246C37.5301 16.9705 37.4915 17.7059 37.423 18.4477L37.4113 18.5815C37.27 20.0415 37.0109 21.4791 36.465 21.4791C35.6269 21.4791 35.3357 18.1094 35.2394 16.4246C35.143 14.5139 35.0135 12.3752 34.4644 10.7556C33.4325 7.51544 31.1086 7.03054 29.8188 7.03054C28.5278 7.03054 26.2692 7.51544 25.2042 10.7556C24.6882 12.3752 24.5587 14.5128 24.4624 16.4246C24.4303 16.9812 24.3799 17.7198 24.2975 18.4616L24.2815 18.5964C24.1102 20.0554 23.8019 21.4791 23.2357 21.4791C22.3001 21.4791 21.9126 17.8825 21.8484 16.4246C21.7521 13.7035 21.6878 10.7556 21.6878 7.02946H17.4597V7.95217C17.4597 9.80721 17.465 11.3668 17.4961 12.9082L17.5035 13.2079L17.51 13.5055C17.5346 14.4507 17.5688 15.4023 17.6213 16.4246C17.7497 18.9508 18.1372 20.8636 18.5247 21.9972C19.3318 24.4592 20.9439 25.6901 23.2357 25.6901C25.4943 25.6901 27.269 24.2643 27.9145 21.9972C28.3662 20.3123 28.5599 18.3685 28.6563 16.4246C28.6991 15.9001 28.7451 15.1615 28.819 14.4068L28.8329 14.2698L28.8479 14.1317L28.8629 13.9947L28.8779 13.8577C29.0374 12.5143 29.3039 11.2737 29.8188 11.2737C30.7222 11.2737 30.8828 14.8382 30.9802 16.4246C31.0765 18.3685 31.1728 20.3444 31.722 21.9972C32.787 25.2363 35.1752 25.6901 36.465 25.6901ZM49.6248 25.5617V7.02946H45.2682V25.5617H49.6248ZM58.2931 23.0986C56.7442 20.9931 56.1308 19.1135 56.1308 16.1334V0.485972H51.7742V16.1334C51.7742 20.0533 52.6787 22.8396 54.7757 25.6901L58.2931 23.0986ZM67.2664 25.6901C71.4293 25.6901 74.1706 23.2282 75.3331 20.2802L71.3319 19.2109C70.7185 20.7983 69.3313 21.8024 67.3628 21.8024C64.9115 21.8024 62.7492 19.9238 62.6208 17.0079H75.9465C76.4624 11.4685 73.2362 6.6409 67.2332 6.6409C62.1038 6.6409 58.2952 10.4966 58.2952 16.1334C58.2952 21.4138 61.8779 25.6901 67.2664 25.6901ZM71.7515 13.7357H62.7171C63.1357 11.6623 65.0078 10.2375 67.2343 10.2375C69.6214 10.2375 71.4293 11.8571 71.7515 13.7357Z" fill="white"/>
</svg>
