<svg width="76" height="27" viewBox="0 0 76 27" fill="none" xmlns="http://www.w3.org/2000/svg">
<path d="M8.51842 26.4357C12.616 26.4357 16.0371 24.6214 16.0371 20.5399C16.0371 17.1702 13.1009 15.8097 8.90592 15.0004L8.80958 14.9801C8.55053 14.9287 8.26687 14.8784 7.97251 14.8227L7.86225 14.8013C6.384 14.5145 4.71093 14.0734 4.71093 12.7001C4.71093 11.3717 6.16349 10.8536 7.55076 10.8536C9.48608 10.8536 10.9708 11.7281 11.4225 13.6388L15.2942 12.5706C14.2944 9.07135 11.2287 7.38651 7.58287 7.38651C3.87172 7.38651 0.548056 8.97394 0.548056 12.8617C0.548056 16.7088 3.66406 17.5737 6.88068 18.2342L7.08406 18.2748L7.38913 18.3369C9.67983 18.8229 11.7136 19.4716 11.7136 20.8631C11.7136 22.4506 10.0031 22.9697 8.48631 22.9697C6.35617 22.9697 4.71093 21.9646 4.09758 19.9244L0 21.0258C1.03296 24.8804 4.84045 26.4357 8.51842 26.4357ZM47.4625 5.73377C48.9151 5.73377 50.1407 4.73079 50.1407 3.23969C50.1407 1.88025 48.9793 0.745605 47.4625 0.745605C45.8815 0.745605 44.7843 1.84707 44.7843 3.23969C44.7843 4.7629 45.9457 5.73377 47.4625 5.73377ZM36.465 26.4357C37.6917 26.4357 39.9824 25.9819 41.0464 22.807C41.5634 21.1875 41.693 19.7617 41.7893 17.1702L41.8139 16.7045L41.8235 16.5504C41.9638 14.1848 42.2485 12.0193 43.0802 12.0193V7.77507C41.7893 7.77507 39.4344 8.26104 38.3372 11.5333C37.8202 13.1861 37.6917 15.2263 37.5622 17.1702C37.5301 17.7161 37.4915 18.4515 37.423 19.1933L37.4113 19.3271C37.27 20.7871 37.0109 22.2247 36.465 22.2247C35.6269 22.2247 35.3357 18.855 35.2394 17.1702C35.143 15.2595 35.0135 13.1208 34.4644 11.5012C33.4325 8.26104 31.1086 7.77614 29.8188 7.77614C28.5278 7.77614 26.2692 8.26104 25.2042 11.5012C24.6882 13.1208 24.5587 15.2584 24.4624 17.1702C24.4303 17.7268 24.3799 18.4654 24.2975 19.2072L24.2815 19.3421C24.1102 20.801 23.8019 22.2247 23.2357 22.2247C22.3001 22.2247 21.9126 18.6281 21.8484 17.1702C21.7521 14.4492 21.6878 11.5012 21.6878 7.77507H17.4597V8.69777C17.4597 10.5528 17.465 12.1124 17.4961 13.6538L17.5035 13.9535L17.51 14.2511C17.5346 15.1963 17.5688 16.1479 17.6213 17.1702C17.7497 19.6964 18.1372 21.6092 18.5247 22.7428C19.3318 25.2048 20.9439 26.4357 23.2357 26.4357C25.4943 26.4357 27.269 25.0099 27.9145 22.7428C28.3662 21.0579 28.5599 19.1141 28.6563 17.1702C28.6991 16.6457 28.7451 15.9071 28.819 15.1524L28.8329 15.0154L28.8479 14.8773L28.8629 14.7403L28.8779 14.6033C29.0374 13.2599 29.3039 12.0193 29.8188 12.0193C30.7222 12.0193 30.8828 15.5838 30.9802 17.1702C31.0765 19.1141 31.1728 21.0901 31.722 22.7428C32.787 25.9819 35.1752 26.4357 36.465 26.4357ZM49.6248 26.3073V7.77507H45.2682V26.3073H49.6248ZM58.2931 23.8443C56.7442 21.7387 56.1308 19.8591 56.1308 16.879V1.23158H51.7742V16.879C51.7742 20.7989 52.6787 23.5852 54.7757 26.4357L58.2931 23.8443ZM67.2664 26.4357C71.4293 26.4357 74.1706 23.9738 75.3331 21.0258L71.3319 19.9565C70.7185 21.5439 69.3313 22.548 67.3628 22.548C64.9115 22.548 62.7492 20.6694 62.6208 17.7535H75.9465C76.4624 12.2141 73.2362 7.38651 67.2332 7.38651C62.1038 7.38651 58.2952 11.2422 58.2952 16.879C58.2952 22.1594 61.8779 26.4357 67.2664 26.4357ZM71.7515 14.4813H62.7171C63.1357 12.4079 65.0078 10.9831 67.2343 10.9831C69.6214 10.9831 71.4293 12.6027 71.7515 14.4813Z" fill="#090C17"/>
</svg>
