<svg width="138" height="25" viewBox="0 0 138 25" fill="none" xmlns="http://www.w3.org/2000/svg">
<path d="M135.134 24.2574C133.804 24.2574 132.75 23.2031 132.75 21.8738C132.75 20.5674 133.804 19.4902 135.134 19.4902C136.463 19.4902 137.517 20.5445 137.517 21.8738C137.517 23.1802 136.463 24.2574 135.134 24.2574Z" fill="#F6861F"/>
<path d="M10.6344 13.6229H5.22554V21.828H10.9553C14.141 21.828 15.5849 20.109 15.5849 17.6567C15.6079 14.471 13.1326 13.6229 10.6344 13.6229ZM9.94685 4.01988H5.22554V11.2623H9.92393C12.7659 11.2623 14.3931 10.1163 14.3931 7.50358C14.3931 5.4867 13.3159 4.01988 9.94685 4.01988ZM11.2532 24.1657H0.183352C0.0687573 23.799 0 23.4552 0 23.0885C0 22.7218 0.0687573 22.378 0.183352 22.0113H2.49817V3.85945H0.183352C0.0687573 3.49274 0 3.14896 0 2.78226C0 2.41555 0.0687573 2.07177 0.183352 1.70506H10.8407C15.3328 1.70506 17.2809 4.45535 17.2809 7.38898C17.2809 8.78704 16.8226 10.9643 14.5307 12.0645C16.2954 12.752 18.5415 14.1272 18.5415 17.6109C18.5644 21.0258 16.1579 24.1657 11.2532 24.1657ZM30.3219 16.2816L26.4485 16.6941C24.2025 16.9462 22.9419 17.8401 22.9419 19.9944C22.9419 21.5071 24.0879 22.4926 25.9443 22.4926C28.03 22.4926 30.3448 21.1633 30.3448 18.8026V16.2816H30.3219ZM34.9057 24.1657H30.4365V22.0571C29.8176 23.226 28.4654 24.5782 25.4172 24.5782C22.4148 24.5782 20.3062 22.8593 20.3062 19.9257C20.3062 17.1754 21.796 15.0898 25.7839 14.7231L30.3219 14.2876V13.7605C30.3219 11.5373 29.5426 10.2768 26.6319 10.2768C24.4317 10.2768 22.5981 11.5373 21.7272 12.2249V9.79548C22.5294 9.19958 24.3858 8.09947 27.2965 8.09947C29.153 8.09947 32.9346 8.53493 32.9346 13.3708V22.2405H34.9057C35.0203 22.5384 35.089 22.8822 35.089 23.2031C35.089 23.524 35.0432 23.8677 34.9057 24.1657ZM43.7982 24.1657H36.9913C36.8767 23.8677 36.8079 23.524 36.8079 23.2031C36.8079 22.9052 36.8767 22.5614 36.9913 22.2405H39.0998V2.69058H36.9913C36.8767 2.39264 36.8079 2.04885 36.8079 1.72798C36.8079 1.43004 36.8767 1.08625 36.9913 0.765381H41.7126V22.2176H43.8212C43.9358 22.5155 44.0045 22.8593 44.0045 23.1802C43.9816 23.524 43.9128 23.8677 43.7982 24.1657ZM51.5449 10.3455C47.7632 10.3455 47.259 14.3334 47.259 16.3274C47.259 19.7882 48.68 22.4009 51.4761 22.4009C53.0804 22.4009 55.739 21.2321 55.739 16.4878C55.739 14.2876 55.189 10.3455 51.5449 10.3455ZM60.2999 24.1657H55.762V21.8738C55.1432 23.5698 53.2409 24.5782 51.4074 24.5782C46.0443 24.5782 44.5316 19.8569 44.5316 16.0294C44.5316 11.4686 46.8694 8.07655 51.0406 8.07655C53.6993 8.07655 55.0056 9.68088 55.6015 10.5747V2.69058H53.5617C53.4013 2.39264 53.3555 2.04885 53.3555 1.72798C53.3555 1.43004 53.4242 1.08625 53.5617 0.765381H58.2372V22.2176H60.277C60.4374 22.5155 60.5062 22.8593 60.5062 23.1802C60.5291 23.524 60.4604 23.8677 60.2999 24.1657ZM68.0007 10.2539C65.1129 10.2539 64.0816 13.3938 64.0816 15.1814H71.874C71.8511 13.1187 71.1406 10.2539 68.0007 10.2539ZM64.0816 17.1066C64.1962 19.6965 65.8463 22.2863 69.0321 22.2863C71.2781 22.2863 72.6762 21.4154 73.868 20.6591V23.2489C72.8137 23.8677 70.9114 24.6012 69.055 24.6012C63.5315 24.6012 61.2854 20.5903 61.2854 16.3274C61.2854 12.0415 63.3482 8.09947 68.0466 8.09947C73.0429 8.09947 74.6243 12.2249 74.6243 16.4649V17.1066H64.0816ZM86.5651 11.3769C86.1984 11.1706 85.6484 10.9185 84.6858 10.9185C83.1502 10.9185 81.0416 12.0645 81.0416 16.0982V22.2634H83.2877C83.4023 22.5614 83.4711 22.9051 83.4711 23.226C83.4711 23.524 83.4023 23.8678 83.2877 24.1886H76.3203C76.2057 23.8907 76.137 23.5469 76.137 23.226C76.137 22.9281 76.2057 22.5843 76.3203 22.2634H78.4289V10.4601H76.3203C76.2057 10.1622 76.137 9.81839 76.137 9.49753C76.137 9.19958 76.2057 8.8558 76.3203 8.53493H80.6291V11.4915C81.1333 10.1622 82.8752 8.53493 85.0066 8.53493C85.6942 8.53493 86.313 8.64953 86.7943 8.8558L86.5651 11.3769ZM94.9764 24.372C92.2032 24.372 90.7822 22.7447 90.7822 19.9715V10.4372H88.3986C88.284 10.1393 88.2153 9.79547 88.2153 9.47461C88.2153 9.17666 88.284 8.83288 88.3986 8.51201H90.7822V4.31783L93.4408 2.89685V8.51201H97.1308C97.2454 8.83288 97.3141 9.15374 97.3141 9.47461C97.3141 9.77255 97.2454 10.1163 97.1308 10.4372H93.4408V20.0861C93.4408 21.5071 94.1284 22.2405 95.3431 22.2405C96.4432 22.2405 97.1995 21.8967 97.5663 21.7134V23.799C96.9245 24.2345 95.7556 24.372 94.9764 24.372ZM105.886 10.3226C102.127 10.3226 101.348 14.2418 101.348 16.3274C101.348 18.413 102.127 22.378 105.886 22.378C109.645 22.378 110.447 18.4359 110.447 16.3274C110.447 14.2418 109.645 10.3226 105.886 10.3226ZM105.886 24.6012C100.89 24.6012 98.6434 20.3841 98.6434 16.3274C98.6434 12.2937 100.89 8.09947 105.886 8.09947C110.882 8.09947 113.174 12.2937 113.174 16.3274C113.174 20.3611 110.882 24.6012 105.886 24.6012ZM130.661 24.1657H124.129C124.015 23.8677 123.946 23.524 123.946 23.2031C123.946 22.9052 124.015 22.5614 124.129 22.2405H125.94V14.5397C125.94 11.9499 125.39 10.3685 122.8 10.3685C120.944 10.3685 118.881 11.6061 118.881 15.6398V22.2405H120.692C120.806 22.5384 120.875 22.8822 120.875 23.2031C120.875 23.501 120.806 23.8448 120.692 24.1657H114.16C114.045 23.8677 113.976 23.524 113.976 23.2031C113.976 22.9052 114.045 22.5614 114.16 22.2405H116.268V10.4372H114.16C114.045 10.1393 113.976 9.79547 113.976 9.47461C113.976 9.17666 114.045 8.83288 114.16 8.51201H118.468V10.8268C119.064 9.72672 120.554 8.07655 123.442 8.07655C126.719 8.07655 128.553 9.97883 128.553 13.6229V22.2176H130.638C130.753 22.5155 130.822 22.8593 130.822 23.1802C130.845 23.524 130.799 23.8677 130.661 24.1657Z" fill="#323740"/>
</svg>
