<svg width="136" height="22" viewBox="0 0 136 22" fill="none" xmlns="http://www.w3.org/2000/svg">
<g opacity="0.8" clip-path="url(#clip0_283_214882)">
<path fill-rule="evenodd" clip-rule="evenodd" d="M11.6092 13.2709C11.7921 13.0879 11.7921 12.7799 11.6092 12.5971C11.6092 12.5971 8.11487 9.0931 8.09562 9.0931C7.99936 8.99683 7.95123 8.88132 7.95123 8.75617C7.96085 8.63104 8.00898 8.51552 8.09562 8.41926L15.2768 1.23813C15.373 1.14187 15.4308 1.02635 15.4308 0.881962C15.4308 0.622055 15.219 0.410278 14.9591 0.410278H7.97048C7.84534 0.410278 7.7202 0.468035 7.63357 0.554671L0.394674 7.79356C0.154019 8.04384 0 8.38076 0 8.75617C0 9.13158 0.144393 9.45889 0.385047 9.70915L7.44104 16.7651C7.62394 16.948 7.93197 16.948 8.11487 16.7651L11.6092 13.2709ZM16.4223 8.4193C16.2394 8.6022 16.2394 8.91024 16.4223 9.09313L19.9358 12.5971C20.0224 12.6933 20.0706 12.8088 20.0706 12.934C20.0706 13.0591 20.0321 13.1843 19.9358 13.2709L12.7547 20.452C12.6584 20.5386 12.6007 20.6638 12.6007 20.8082C12.6007 21.0681 12.8124 21.2798 13.0723 21.2798H20.061C20.1861 21.2798 20.3112 21.2221 20.3979 21.1355L27.6368 13.8966C27.8774 13.6463 28.0315 13.3094 28.0315 12.934C28.0315 12.5585 27.8774 12.2312 27.6464 11.981L20.5904 4.925C20.4075 4.7421 20.0995 4.7421 19.9166 4.925L16.4223 8.4193ZM44.6848 5.72394C43.5007 5.31001 41.6621 4.95384 40.093 4.95384C37.2533 4.95384 35.4629 6.30151 35.4629 8.54441C35.4629 10.5274 36.6469 11.3552 39.1882 11.8847C39.3343 11.9151 39.479 11.944 39.621 11.9724C40.872 12.2224 41.9124 12.4303 41.9124 13.2516C41.9124 13.9062 41.277 14.2335 40.0738 14.2238C39.0727 14.2046 37.5806 13.9351 35.7613 13.2516L35.1259 15.7448C36.8971 16.409 38.7357 16.7266 40.1893 16.7266C43.0483 16.7266 44.935 15.4945 44.935 13.0687C44.935 10.8836 43.3852 10.1424 41.0461 9.64176C40.939 9.61932 40.8349 9.59776 40.7339 9.57689L40.7324 9.57654H40.7321C39.3199 9.28402 38.524 9.11915 38.524 8.40964C38.524 7.70693 39.1208 7.40852 40.1124 7.40852C41.0845 7.40852 42.4996 7.67805 44.0879 8.15937L44.6848 5.72394ZM48.2175 5.2715C49.5556 5.20412 51.0476 5.13673 52.5974 5.13673C55.6008 5.13673 57.5357 6.5229 57.5357 9.17976C57.5357 11.7691 55.5911 13.4057 52.5878 13.4057H51.0187V16.4378H48.2175V5.2715ZM51.0283 7.4759V10.951H52.761C53.9162 10.951 54.7344 10.306 54.7344 9.19897C54.7344 8.0631 53.9162 7.44702 52.761 7.44702C52.1835 7.44702 51.5963 7.45664 51.0283 7.4759ZM80.0802 5.27154V11.7307L74.8147 5.27154H72.2252V16.4379H75.0264V10.0365L80.3016 16.4379H82.8718V5.27154H80.0802ZM86.5971 5.26184C87.8296 5.19446 89.2539 5.12708 90.8226 5.12708C94.5191 5.12708 97.0035 7.22558 96.993 10.7872C96.993 14.3778 94.5096 16.5822 91.1026 16.5822C89.4174 16.5822 87.8296 16.5149 86.5971 16.4475V5.26184ZM89.4078 14.012C89.9948 14.0409 90.6113 14.0409 91.1791 14.0409C92.7965 14.0409 94.0957 12.7895 94.1052 10.7584C94.1052 8.7754 92.8061 7.6395 90.9478 7.6395C90.4574 7.6395 89.9278 7.6395 89.4078 7.66838V14.012ZM121.232 5.72394C120.048 5.31001 118.21 4.95384 116.64 4.95384C113.801 4.95384 112.01 6.30151 112.01 8.54441C112.01 10.5274 113.194 11.3552 115.736 11.8847C115.882 11.9151 116.026 11.944 116.169 11.9724C117.419 12.2224 118.46 12.4303 118.46 13.2516C118.46 13.9062 117.824 14.2335 116.621 14.2238C115.62 14.2046 114.128 13.9351 112.309 13.2516L111.673 15.7448C113.444 16.409 115.283 16.7266 116.737 16.7266C119.596 16.7266 121.483 15.4945 121.483 13.0687C121.483 10.8836 119.932 10.1424 117.593 9.64176C117.486 9.61924 117.381 9.59758 117.28 9.57654H117.279C115.867 9.28402 115.071 9.11915 115.071 8.40964C115.071 7.70693 115.668 7.40852 116.66 7.40852C117.632 7.40852 119.047 7.67805 120.636 8.15937L121.232 5.72394ZM129.328 12.6548H127.576V16.4379H124.775V5.27154H127.585V9.91132H128.134L131.84 5.27154H135.248L131.118 10.4119L135.508 16.4379H132.071L129.328 12.6548ZM63.0997 9.66106V7.63955H68.8753V5.26189H60.2888V16.4283H68.8753V14.0506H63.0997V12.0291H67.9224V9.66106H63.0997ZM103.01 7.63955V9.66106H107.832V12.0291H103.01V14.0506H108.785V16.4283H100.199V5.26189H108.785V7.63955H103.01Z" fill="white"/>
</g>
<defs>
<clipPath id="clip0_283_214882">
<rect width="135.652" height="20.8696" fill="white" transform="translate(0 0.410278)"/>
</clipPath>
</defs>
</svg>
