<svg width="30" height="30" viewBox="0 0 30 30" fill="none" xmlns="http://www.w3.org/2000/svg">
<path d="M9.32812 7.19101C9.32812 6.35094 9.32812 5.9309 9.49162 5.61003C9.63543 5.32779 9.8649 5.09832 10.1471 4.95451C10.468 4.79102 10.888 4.79102 11.7281 4.79102H25.4561C26.2962 4.79102 26.7163 4.79102 27.0371 4.95451C27.3194 5.09832 27.5488 5.32779 27.6927 5.61003C27.8561 5.9309 27.8561 6.35094 27.8561 7.19102V12.3771C27.8561 14.9569 27.8561 16.2468 27.6234 17.4398C27.1157 20.0423 25.7985 22.4178 23.8599 24.2269C22.9713 25.0562 21.8772 25.7395 19.689 27.1059C19.397 27.2882 19.251 27.3794 19.1005 27.4336C18.7719 27.552 18.4123 27.552 18.0837 27.4336C17.9333 27.3794 17.7873 27.2882 17.4953 27.1059C15.3071 25.7395 14.213 25.0562 13.3244 24.2269C11.3858 22.4178 10.0686 20.0423 9.56087 17.4398C9.32812 16.2468 9.32812 14.9569 9.32812 12.3771V7.19101Z" fill="url(#paint0_linear_1024_231220)"/>
<path d="M2.14062 3.59726C2.14062 2.75719 2.14062 2.33715 2.30412 2.01628C2.44793 1.73404 2.6774 1.50457 2.95964 1.36076C3.28051 1.19727 3.70055 1.19727 4.54063 1.19727H18.2686C19.1087 1.19727 19.5288 1.19727 19.8496 1.36076C20.1319 1.50457 20.3613 1.73404 20.5052 2.01628C20.6686 2.33715 20.6686 2.75719 20.6686 3.59727V8.78335C20.6686 11.3631 20.6686 12.653 20.4359 13.846C19.9282 16.4486 18.611 18.824 16.6724 20.6332C15.7838 21.4625 14.6897 22.1457 12.5015 23.5121C12.2095 23.6945 12.0635 23.7857 11.913 23.8399C11.5844 23.9582 11.2248 23.9582 10.8962 23.8399C10.7458 23.7857 10.5998 23.6945 10.3078 23.5121C8.11958 22.1457 7.02548 21.4625 6.13685 20.6332C4.19832 18.824 2.88111 16.4486 2.37337 13.846C2.14062 12.653 2.14062 11.3631 2.14062 8.78334V3.59726Z" fill="#6A86F2"/>
<path fill-rule="evenodd" clip-rule="evenodd" d="M8.36532 10.6265C8.75352 10.3174 9.31875 10.3816 9.62779 10.7698L11.1927 12.7355L14.118 8.96593C14.4222 8.57394 14.9866 8.50277 15.3786 8.80698C15.7706 9.11119 15.8417 9.67557 15.5375 10.0676L11.9114 14.7401C11.7424 14.9578 11.4829 15.086 11.2072 15.0877C10.9316 15.0894 10.6704 14.9645 10.4988 14.7488L8.22201 11.8889C7.91296 11.5007 7.97713 10.9355 8.36532 10.6265Z" fill="white"/>
<defs>
<linearGradient id="paint0_linear_1024_231220" x1="18.5921" y1="4.79102" x2="18.5921" y2="27.7908" gradientUnits="userSpaceOnUse">
<stop stop-color="#FCBA01"/>
<stop offset="1" stop-color="#FCBA01" stop-opacity="0"/>
</linearGradient>
</defs>
</svg>
