<svg width="30" height="30" viewBox="0 0 30 30" fill="none" xmlns="http://www.w3.org/2000/svg">
<rect x="8.87695" y="8.80859" width="19.7181" height="17.0097" rx="1.5" fill="url(#paint0_linear_1372_175529)"/>
<rect x="1.42578" y="4.99976" width="19.6505" height="17.0304" rx="1.5" fill="#6A86F2"/>
<path d="M14.578 17.6726H7.92578C7.92578 16.7904 8.27621 15.9444 8.89998 15.3206C9.52375 14.6969 10.3698 14.3464 11.2519 14.3464V14.3464C12.134 14.3464 12.9801 14.6969 13.6038 15.3206C14.2276 15.9444 14.578 16.7904 14.578 17.6726Z" stroke="white" stroke-width="1.5" stroke-linecap="round" stroke-linejoin="round"/>
<path d="M11.2524 14.3464C12.6301 14.3464 13.747 13.2295 13.747 11.8518C13.747 10.474 12.6301 9.35718 11.2524 9.35718C9.87468 9.35718 8.75781 10.474 8.75781 11.8518C8.75781 13.2295 9.87468 14.3464 11.2524 14.3464Z" stroke="white" stroke-width="1.5" stroke-linecap="round" stroke-linejoin="round"/>
<defs>
<linearGradient id="paint0_linear_1372_175529" x1="18.736" y1="8.80859" x2="18.736" y2="25.8183" gradientUnits="userSpaceOnUse">
<stop stop-color="#FCBA01"/>
<stop offset="1" stop-color="#FCBA01" stop-opacity="0"/>
</linearGradient>
</defs>
</svg>
