<svg width="50" height="50" viewBox="0 0 50 50" fill="none" xmlns="http://www.w3.org/2000/svg">
<path d="M19.8035 45.5325L43.9464 45.5325C45.4279 45.5325 46.6289 44.3315 46.6289 42.8499L46.6289 24.0721C46.6289 22.5906 45.4279 21.3896 43.9464 21.3896L19.8035 21.3896C18.322 21.3896 17.121 22.5906 17.121 24.0721L17.121 42.8499C17.121 44.3315 18.322 45.5325 19.8035 45.5325Z" fill="url(#paint0_linear_1046_133311)" fill-opacity="0.8"/>
<path d="M6.39062 19.6335V12.9271C6.39062 10.437 7.37981 8.04891 9.14057 6.28815C10.9013 4.52739 13.2894 3.53821 15.7795 3.53821C18.2696 3.53821 20.6577 4.52739 22.4185 6.28815C24.1792 8.04891 25.1684 10.437 25.1684 12.9271V19.6335" stroke="#2D4AB8" stroke-width="4.86062" stroke-linecap="round" stroke-linejoin="round"/>
<path d="M27.8508 16.0245H3.70793C2.22641 16.0245 1.02539 17.2256 1.02539 18.7071V37.4849C1.02539 38.9664 2.22641 40.1674 3.70793 40.1674H27.8508C29.3323 40.1674 30.5333 38.9664 30.5333 37.4849V18.7071C30.5333 17.2256 29.3323 16.0245 27.8508 16.0245Z" fill="#6A86F2"/>
<path d="M15.7793 25.4135V30.7785" stroke="white" stroke-width="3.03789" stroke-linecap="round" stroke-linejoin="round"/>
<defs>
<linearGradient id="paint0_linear_1046_133311" x1="27.6127" y1="20.7706" x2="27.6127" y2="44.2944" gradientUnits="userSpaceOnUse">
<stop stop-color="#FCBA01"/>
<stop offset="1" stop-color="white"/>
</linearGradient>
</defs>
</svg>
