<svg width="30" height="30" viewBox="0 0 30 30" fill="none" xmlns="http://www.w3.org/2000/svg">
<rect x="8.89258" y="6.87012" width="19.8864" height="19.8864" rx="9.94322" fill="url(#paint0_linear_1024_231212)"/>
<rect x="1.3125" y="3" width="19.8864" height="19.8864" rx="9.94322" fill="#6A86F2"/>
<path d="M11.7202 8.40201L13.0455 11.0124H15.3043C15.4287 11.0093 15.5511 11.0439 15.6555 11.1115C15.7598 11.1791 15.8414 11.2767 15.8895 11.3914C15.9375 11.5061 15.9499 11.6327 15.9249 11.7545C15.8999 11.8764 15.8387 11.9878 15.7493 12.0743L13.6753 14.1112L14.8243 16.7502C14.875 16.8711 14.8864 17.0048 14.8569 17.1325C14.8275 17.2602 14.7587 17.3754 14.6602 17.4619C14.5618 17.5484 14.4386 17.6018 14.3082 17.6145C14.1778 17.6273 14.0467 17.5987 13.9333 17.5329L11.1562 15.9707L8.37918 17.5329C8.26585 17.5987 8.13471 17.6273 8.00429 17.6145C7.87386 17.6018 7.75072 17.5484 7.65226 17.4619C7.55381 17.3754 7.485 17.2602 7.45556 17.1325C7.42612 17.0048 7.43753 16.8711 7.48818 16.7502L8.63724 14.1112L6.56319 12.0701C6.47382 11.9836 6.41263 11.8721 6.38762 11.7503C6.36261 11.6284 6.37495 11.5019 6.42302 11.3871C6.47109 11.2724 6.55265 11.1749 6.65705 11.1072C6.76144 11.0396 6.88381 11.0051 7.00816 11.0081H9.26699L10.5934 8.40201C10.6475 8.29953 10.7286 8.21376 10.8279 8.15394C10.9272 8.09411 11.0409 8.0625 11.1568 8.0625C11.2727 8.0625 11.3864 8.09411 11.4857 8.15394C11.5849 8.21376 11.666 8.29953 11.7202 8.40201Z" fill="#6A86F2" stroke="white" stroke-width="1.5" stroke-linecap="round" stroke-linejoin="round"/>
<defs>
<linearGradient id="paint0_linear_1024_231212" x1="18.8358" y1="6.87012" x2="18.8358" y2="26.7566" gradientUnits="userSpaceOnUse">
<stop stop-color="#FCBA01"/>
<stop offset="1" stop-color="#FCBA01" stop-opacity="0"/>
</linearGradient>
</defs>
</svg>
