<?xml version="1.0" encoding="utf-8"?>
<!-- Generator: Adobe Illustrator 23.0.3, SVG Export Plug-In . SVG Version: 6.00 Build 0)  -->
<svg version="1.1" xmlns="http://www.w3.org/2000/svg" xmlns:xlink="http://www.w3.org/1999/xlink" x="0px" y="0px"
	 viewBox="0 0 596.9 90" style="enable-background:new 0 0 596.9 90;" xml:space="preserve">
<style type="text/css">
	.st0{fill:#0A9E01;}
</style>
<g id="Layer_1">
	<polygon class="st0" points="90,0 90,30 60,30 60,90 30,90 30,30 0,30 0,0 	"/>
	<rect x="120" class="st0" width="60" height="30"/>
	<polygon class="st0" points="180,60 180,90 90,90 90,30 120,30 120,60 	"/>
</g>
<g id="Layer_2">
	<g id="Page-1">
		<g id="tc">
			<polyline id="Fill-4" class="st0" points="236.7,21 195.5,21 195.5,32.9 209.3,32.9 209.3,70.2 222.9,70.2 222.9,32.9 
				236.7,32.9 236.7,21 			"/>
			<path id="Fill-5" class="st0" d="M252.2,32.5c-9.7,0-16.9,6.5-16.9,19.3c0,11.3,6.1,19.2,17.2,19.2c5.8,0,10.5-1.5,15-4.2
				l-4.8-8.1c-3.7,1.9-6.3,2.6-9.6,2.6c-3.4,0-5.8-1.8-6.3-5.9h21.7c0.1-0.6,0.1-1.4,0.1-2.5C268.7,39.2,262.4,32.5,252.2,32.5z
				 M247,47.5c0.4-3.7,2-5.6,4.9-5.6c3.7,0,5,1.9,5.6,5.6H247z"/>
			<path id="Fill-6" class="st0" d="M292.7,60.7c-3.4,0-5.2-3-5.2-8.9c0-5.8,1.6-9.1,4.9-9.1c2.7,0,3.9,1.5,5.7,4.8l8.7-6.6
				c-3.2-5.2-7.2-8.4-14.2-8.4c-11.8,0-17.6,7.8-17.6,19.1c0,12.4,6.5,19.3,17.3,19.3c6.5,0,10.5-2.5,14.8-8.8l-8-6.3
				C296.7,59.4,295.1,60.7,292.7,60.7"/>
			<path id="Fill-7" class="st0" d="M336.3,32.5c-4.4,0-7,1.5-9.3,3.2V19l-12.7,5.1v46.2H327V49.2c0-4.6,1.6-5.9,4.3-5.9
				c2.6,0,4.2,1.3,4.2,6v21h12.7V47.7C348.2,38,344.3,32.5,336.3,32.5"/>
			<path id="Fill-8" d="M378.7,59.1c-5.9,0-8.3-6-8.3-13.5c0-7.8,2.5-13.5,8.2-13.5c4.5,0,6.2,2.9,7.9,7.5l12.4-4.9
				c-3.4-9.3-8.2-14.5-20.3-14.5c-13.2,0-22.5,9.6-22.5,25.4c0,14.6,7.8,25.4,22.4,25.4c11.7,0,17.2-6.3,20.5-12.7l-11.5-6.1
				C384.8,56.8,383,59.1,378.7,59.1"/>
			<path id="Fill-9" d="M419.4,36v-2.7h-12.7v36.9h12.7V50.1c0-4.5,1.9-6,5-6c2.5,0,4.3,1.3,5.9,3.1l3-13.1c-1.5-0.9-3.3-1.6-6-1.6
				C424,32.5,421.5,33.9,419.4,36"/>
			<path id="Fill-10" d="M460.4,54.4c0,4.6-1.6,5.9-4.2,5.9s-4.2-1.3-4.2-6v-21h-12.7v22.6c0,9.7,3.9,15.1,12,15.1
				c4.3,0,7-1.5,9.2-3.2v2.5h12.7V33.4h-12.7L460.4,54.4"/>
			<path id="Fill-11" d="M504.3,32.5c-4.4,0-7,1.5-9.3,3.2v-2.5h-12.7v36.9H495V49c0-4.6,1.6-5.9,4.3-5.9c2.6,0,4.2,1.3,4.2,6v21
				h12.7V47.5C516.2,38,512.4,32.5,504.3,32.5"/>
			<path id="Fill-12" d="M541.4,60.7c-3.4,0-5.2-3-5.2-8.9c0-5.8,1.6-9.1,4.8-9.1c2.7,0,3.9,1.5,5.7,4.8l8.7-6.6
				c-3.2-5.2-7.2-8.4-14.2-8.4c-11.8,0-17.6,7.8-17.6,19.1c0,12.4,6.5,19.3,17.3,19.3c6.5,0,10.5-2.5,14.8-8.8l-8-6.3
				C545.5,59.4,543.8,60.7,541.4,60.7"/>
			<path id="Fill-13" d="M585,32.5c-4.4,0-7,1.5-9.3,3.2V19L563,24.1v46.2h12.7V49.2c0-4.6,1.6-5.9,4.3-5.9c2.6,0,4.2,1.3,4.2,6v21
				h12.7V47.7C597,38,593.1,32.5,585,32.5"/>
		</g>
	</g>
</g>
</svg>
