<svg width="18" height="15" viewBox="0 0 18 15" fill="none" xmlns="http://www.w3.org/2000/svg">
<path d="M5.9217 14.5C12.4276 14.5 15.9854 9.11436 15.9854 4.44412C15.9854 4.29114 15.9823 4.13887 15.9754 3.98728C16.6661 3.4884 17.2663 2.86585 17.7398 2.15715C17.106 2.43863 16.424 2.62811 15.7086 2.71356C16.4388 2.27601 16.9994 1.58386 17.2639 0.758739C16.5805 1.16356 15.8237 1.45778 15.0179 1.61663C14.3725 0.929671 13.4536 0.5 12.4361 0.5C10.4828 0.5 8.8989 2.08278 8.8989 4.03378C8.8989 4.31112 8.92993 4.58089 8.99061 4.83965C6.05093 4.69185 3.44423 3.28548 1.69968 1.14702C1.39592 1.66932 1.22077 2.27603 1.22077 2.92339C1.22077 4.14957 1.84521 5.23204 2.79477 5.8653C2.21447 5.84738 1.66934 5.68821 1.19288 5.42327C1.19236 5.4381 1.19236 5.45256 1.19236 5.4684C1.19236 7.18003 2.41157 8.6091 4.03 8.93293C3.73278 9.01389 3.42008 9.05731 3.09733 9.05731C2.86977 9.05731 2.64806 9.03493 2.43256 8.99357C2.88286 10.3978 4.18862 11.4197 5.73671 11.4483C4.52612 12.3964 3.00112 12.9611 1.3437 12.9611C1.05855 12.9611 0.776856 12.9449 0.5 12.9122C2.06538 13.9148 3.92413 14.4998 5.92189 14.4998" fill="white"/>
</svg>
