<svg width="30" height="30" viewBox="0 0 30 30" fill="none" xmlns="http://www.w3.org/2000/svg">
<path d="M23.6667 5H15.3333C13.4924 5 12 6.37299 12 8.06667V24.9333C12 26.627 13.4924 28 15.3333 28H23.6667C25.5076 28 27 26.627 27 24.9333V8.06667C27 6.37299 25.5076 5 23.6667 5Z" fill="url(#paint0_linear_1024_231200)"/>
<path d="M14.6667 1H6.33333C4.49239 1 3 2.37299 3 4.06667V20.9333C3 22.627 4.49239 24 6.33333 24H14.6667C16.5076 24 18 22.627 18 20.9333V4.06667C18 2.37299 16.5076 1 14.6667 1Z" fill="#6A86F2"/>
<line x1="9.75" y1="3.9375" x2="11.25" y2="3.9375" stroke="white" stroke-width="1.5" stroke-linecap="round"/>
<path d="M3 19H18V20.72C18 22.5315 16.5315 24 14.72 24H6.28C4.46851 24 3 22.5315 3 20.72V19Z" fill="#2D4AB8"/>
<defs>
<linearGradient id="paint0_linear_1024_231200" x1="19.5" y1="5" x2="19.5" y2="28" gradientUnits="userSpaceOnUse">
<stop stop-color="#FCBA01"/>
<stop offset="1" stop-color="white" stop-opacity="0"/>
</linearGradient>
</defs>
</svg>
