<svg width="30" height="30" viewBox="0 0 30 30" fill="none" xmlns="http://www.w3.org/2000/svg">
<rect x="10.4688" y="5.6604" width="18.2811" height="22.0994" rx="1.49063" fill="url(#paint0_linear_1372_175545)"/>
<path d="M5.76108 1.81105C6.02288 1.53404 6.15379 1.39554 6.30872 1.29633C6.44606 1.20839 6.59682 1.14344 6.75507 1.10403C6.93359 1.05957 7.12417 1.05957 7.50532 1.05957H17.1487C17.9888 1.05957 18.4088 1.05957 18.7297 1.22306C19.0119 1.36687 19.2414 1.59634 19.3852 1.87858C19.5487 2.19945 19.5487 2.61949 19.5487 3.45957V20.7589C19.5487 21.599 19.5487 22.0191 19.3852 22.3399C19.2414 22.6222 19.0119 22.8516 18.7297 22.9954C18.4088 23.1589 17.9888 23.1589 17.1487 23.1589H3.66758C2.8275 23.1589 2.40746 23.1589 2.08659 22.9954C1.80435 22.8516 1.57488 22.6222 1.43107 22.3399C1.26758 22.0191 1.26758 21.599 1.26758 20.7589V7.52015C1.26758 7.16741 1.26758 6.99104 1.30611 6.82433C1.34028 6.6765 1.39669 6.53471 1.47339 6.4038C1.5599 6.25617 1.68104 6.12799 1.92334 5.87163L5.76108 1.81105Z" fill="#6A86F2"/>
<path d="M6.44833 1.05298L1.25977 6.53922H4.95771C5.78096 6.53922 6.44833 5.87185 6.44833 5.0486V1.05298Z" fill="#2D4AB8"/>
<path d="M7 12.4995H14" stroke="white" stroke-width="1.5" stroke-linecap="round" stroke-linejoin="round"/>
<path d="M10.5 8.99951V15.9995" stroke="white" stroke-width="1.5" stroke-linecap="round" stroke-linejoin="round"/>
<defs>
<linearGradient id="paint0_linear_1372_175545" x1="19.6093" y1="5.6604" x2="19.6093" y2="27.7598" gradientUnits="userSpaceOnUse">
<stop stop-color="#FCBA01"/>
<stop offset="1" stop-color="#FCBA01" stop-opacity="0"/>
</linearGradient>
</defs>
</svg>
